<?xml version="1.0" encoding="utf-8"?>
<!-- Generator: Adobe Illustrator 23.0.6, SVG Export Plug-In . SVG Version: 6.00 Build 0)  -->
<svg width="54px" height="54px" xmlns="http://www.w3.org/2000/svg" xmlns:xlink="http://www.w3.org/1999/xlink" x="0px" y="0px"
	 viewBox="0 0 54 54" style="enable-background:new 0 0 54 54;" xml:space="preserve">
<style type="text/css">
	.st0{fill:#00005B;}
	.st1{fill:#9999FF;}
</style>
<g>
	<path class="st0" d="M0,19.5C0,12.7,0,9.3,1.3,6.7c1.2-2.3,3-4.2,5.3-5.3C9.3,0,12.7,0,19.5,0h14.9c6.8,0,10.3,0,12.9,1.3
		c2.3,1.2,4.2,3,5.3,5.3c1.3,2.6,1.3,6,1.3,12.9v14.9c0,6.8,0,10.3-1.3,12.9c-1.2,2.3-3,4.2-5.3,5.3c-2.6,1.3-6,1.3-12.9,1.3H19.5
		c-6.8,0-10.3,0-12.9-1.3c-2.3-1.2-4.2-3-5.3-5.3C0,44.7,0,41.3,0,34.5V19.5z"/>
	<path class="st1" d="M22.7,33.9h-8.4l-1.7,5.4c0,0.2-0.2,0.3-0.4,0.3H8c-0.2,0-0.3-0.1-0.3-0.4L15,17.9c0.1-0.2,0.1-0.4,0.2-0.7
		c0.1-0.5,0.1-1,0.1-1.5c0-0.1,0.1-0.3,0.3-0.3h5.8c0.2,0,0.3,0.1,0.3,0.2l8.2,23.7c0.1,0.2,0,0.4-0.2,0.4h-4.7
		c-0.2,0-0.3-0.1-0.4-0.3L22.7,33.9z M15.7,29.3h5.7c-0.9-3.2-2-6.4-2.9-9.6C17.6,23,16.7,26.1,15.7,29.3z"/>
	<path class="st1" d="M36,31.8c0.3,2.8,2.7,4.1,5.2,4c1.4,0,3-0.3,4.3-0.8c0.1-0.1,0.2,0,0.2,0.2v3.5c0,0.2-0.1,0.3-0.2,0.4
		c-1.7,0.8-3.6,1-5.4,1c-5.4,0-9.2-3.8-9.2-9.4c0-5.3,3.4-9.7,8.7-9.7c4.5-0.1,7.6,3.5,7.6,8c0,0.8,0,1.6-0.1,2.5
		c0,0.2-0.2,0.3-0.3,0.3C43.2,31.7,39.6,31.8,36,31.8z M36,28.4c2,0,4,0.1,6,0c0.3,0,0.5-0.1,0.5-0.4c0-1.7-1.4-3-3.1-3
		C37.5,24.9,36.2,26.5,36,28.4z"/>
</g>
</svg>
