<?xml version="1.0" encoding="utf-8"?>
<!-- Generator: Adobe Illustrator 23.0.6, SVG Export Plug-In . SVG Version: 6.00 Build 0)  -->
<svg width="54px" height="54px" xmlns="http://www.w3.org/2000/svg" xmlns:xlink="http://www.w3.org/1999/xlink" x="0px" y="0px"
	 viewBox="0 0 54 54" style="enable-background:new 0 0 54 54;" xml:space="preserve">
<style type="text/css">
	.st0{fill:#330000;}
	.st1{fill:#FF9A00;}
</style>
<g>
	<path class="st0" d="M0,19.5C0,12.7,0,9.3,1.3,6.7c1.2-2.3,3-4.2,5.3-5.3C9.3,0,12.7,0,19.5,0h14.9c6.8,0,10.3,0,12.9,1.3
		c2.3,1.2,4.2,3,5.3,5.3c1.3,2.6,1.3,6,1.3,12.9v14.9c0,6.8,0,10.3-1.3,12.9c-1.2,2.3-3,4.2-5.3,5.3c-2.6,1.3-6,1.3-12.9,1.3H19.5
		c-6.8,0-10.3,0-12.9-1.3c-2.3-1.2-4.2-3-5.3-5.3C0,44.7,0,41.3,0,34.5V19.5z"/>
	<path class="st1" d="M26.2,33.9h-8.4l-1.7,5.4c0,0.2-0.2,0.3-0.4,0.3h-4.2c-0.2,0-0.3-0.1-0.3-0.4l7.2-21.4
		c0.1-0.2,0.1-0.5,0.2-0.8c0.1-0.5,0.1-1,0.1-1.5c0-0.1,0.1-0.3,0.3-0.3h5.8c0.2,0,0.3,0.1,0.3,0.2l8.2,23.8c0.1,0.2,0,0.4-0.2,0.4
		h-4.7c-0.2,0-0.3-0.1-0.4-0.3L26.2,33.9z M19.1,29.3h5.7c-0.9-3.2-2-6.4-2.9-9.6C21,22.9,20,26.1,19.1,29.3z"/>
	<path class="st1" d="M38.2,19.3c-0.4,0-0.7,0-1.1-0.2c-0.3-0.1-0.7-0.4-0.9-0.6c-0.3-0.3-0.5-0.6-0.6-1c-0.1-0.4-0.2-0.7-0.2-1.1
		c0-0.4,0.1-0.8,0.2-1.1c0.1-0.4,0.4-0.7,0.6-0.9c0.3-0.3,0.6-0.5,0.9-0.6c0.3-0.1,0.7-0.2,1.1-0.2c0.9,0,1.6,0.3,2,0.8
		c0.2,0.3,0.4,0.6,0.6,1c0.1,0.4,0.2,0.7,0.2,1.1c0,0.4,0,0.8-0.2,1.1c-0.1,0.4-0.3,0.7-0.6,1c-0.3,0.3-0.6,0.5-1,0.6
		C39,19.3,38.6,19.3,38.2,19.3z M35.7,39.3V21.6c0-0.2,0.1-0.3,0.3-0.3h4.5c0.2,0,0.3,0.1,0.3,0.3v17.8c0,0.2-0.1,0.4-0.3,0.4H36
		C35.8,39.7,35.7,39.6,35.7,39.3z"/>
</g>
</svg>
