<svg width="56" height="50" viewBox="0 0 56 50" fill="none" xmlns="http://www.w3.org/2000/svg">
<path d="M39.0662 17.9045L28.4304 11.7639C28.2996 11.6883 28.1511 11.6484 28 11.6484C27.8488 11.6484 27.7004 11.6883 27.5695 11.7639L16.9338 17.9045C16.803 17.9799 16.6943 18.0884 16.6187 18.2191C16.543 18.3498 16.5031 18.4981 16.5029 18.6492V30.9303C16.5029 31.2373 16.6675 31.5215 16.9338 31.6758L27.5695 37.8164C27.8359 37.9699 28.1632 37.9699 28.4304 37.8164L39.0662 31.6758C39.3325 31.5223 39.4962 31.2382 39.4962 30.9303V18.6492C39.4962 18.3413 39.3325 18.058 39.0662 17.9036V17.9045Z" fill="#8080F2"/>
<path d="M0.345606 23.4979L13.0542 1.38926C13.5156 0.589462 14.3689 0 15.2916 0H40.708C41.6317 0 42.4841 0.589462 42.9463 1.38926L55.6541 23.4496C55.8808 23.8466 56 24.2959 56 24.7531C56 25.2104 55.8808 25.6597 55.6541 26.0568L42.9463 47.9847C42.4841 48.7837 41.6317 49.1925 40.708 49.1925H15.2916C14.3689 49.1925 13.5156 48.7964 13.0542 47.9966L0.346454 26.033C0.119642 25.6489 0 25.2111 0 24.765C0 24.319 0.119642 23.8811 0.346454 23.497L0.345606 23.4979ZM10.8686 34.1286C10.8686 34.4542 11.0645 34.7545 11.3461 34.9173L27.5338 44.2563C27.8154 44.4191 28.1682 44.4191 28.4498 44.2563L44.6494 34.9173C44.931 34.7545 45.1277 34.4542 45.1277 34.1286V15.4498C45.1277 15.125 44.9335 14.8239 44.6528 14.6611L28.4642 5.32381C28.3249 5.24391 28.1672 5.20186 28.0066 5.20186C27.8461 5.20186 27.6883 5.24391 27.5491 5.32381L11.3478 14.6619C11.0662 14.8247 10.8677 15.1258 10.8677 15.4507V34.1294L10.8686 34.1286Z" fill="#4B32C3"/>
</svg>
