<?xml version="1.0" encoding="utf-8"?>
<!-- Generator: Adobe Illustrator 23.0.6, SVG Export Plug-In . SVG Version: 6.00 Build 0)  -->
<svg width="54px" height="54px" xmlns="http://www.w3.org/2000/svg" xmlns:xlink="http://www.w3.org/1999/xlink" x="0px" y="0px"
	 viewBox="0 0 54 54" style="enable-background:new 0 0 54 54;" xml:space="preserve">
<style type="text/css">
	.st0{fill:#1E1E1E;}
	.st1{clip-path:url(#SVGID_2_);}
	.st2{fill:#1ABCFE;}
	.st3{fill:#0ACF83;}
	.st4{fill:#FF7262;}
	.st5{fill:#F24E1E;}
	.st6{fill:#A259FF;}
</style>
<path class="st0" d="M0,19.5C0,12.7,0,9.3,1.3,6.7c1.2-2.3,3-4.2,5.3-5.3C9.3,0,12.7,0,19.5,0h14.9c6.8,0,10.3,0,12.9,1.3
	c2.3,1.2,4.2,3,5.3,5.3c1.3,2.6,1.3,6,1.3,12.9v14.9c0,6.8,0,10.3-1.3,12.9c-1.2,2.3-3,4.2-5.3,5.3c-2.6,1.3-6,1.3-12.9,1.3H19.5
	c-6.8,0-10.3,0-12.9-1.3c-2.3-1.2-4.2-3-5.3-5.3C0,44.7,0,41.3,0,34.5V19.5z"/>
<g>
	<defs>
		<rect id="SVGID_1_" x="15.8" y="10.2" width="23.3" height="34.1"/>
	</defs>
	<clipPath id="SVGID_2_">
		<use xlink:href="#SVGID_1_"  style="overflow:visible;"/>
	</clipPath>
	<g class="st1">
		<path class="st2" d="M27.4,27.2c0-1.5,0.6-2.9,1.7-4c1.1-1.1,2.6-1.7,4.1-1.7c1.5,0,3,0.6,4.1,1.7c1.1,1.1,1.7,2.5,1.7,4
			s-0.6,2.9-1.7,4c-1.1,1.1-2.6,1.7-4.1,1.7c-1.5,0-3-0.6-4.1-1.7C28,30.1,27.4,28.7,27.4,27.2z"/>
		<path class="st3" d="M15.8,38.5c0-1.5,0.6-2.9,1.7-4c1.1-1.1,2.6-1.7,4.1-1.7h5.8v5.7c0,1.5-0.6,2.9-1.7,4
			c-1.1,1.1-2.6,1.7-4.1,1.7s-3-0.6-4.1-1.7C16.4,41.5,15.8,40,15.8,38.5L15.8,38.5z"/>
		<path class="st4" d="M27.4,10.2v11.4h5.8c1.5,0,3-0.6,4.1-1.7c1.1-1.1,1.7-2.5,1.7-4s-0.6-2.9-1.7-4c-1.1-1.1-2.6-1.7-4.1-1.7
			H27.4z"/>
		<path class="st5" d="M15.8,15.8c0,1.5,0.6,2.9,1.7,4c1.1,1.1,2.6,1.7,4.1,1.7h5.8V10.2h-5.8c-1.5,0-3,0.6-4.1,1.7
			C16.4,12.9,15.8,14.3,15.8,15.8L15.8,15.8z"/>
		<path class="st6" d="M15.8,27.2c0,1.5,0.6,2.9,1.7,4c1.1,1.1,2.6,1.7,4.1,1.7h5.8V21.5h-5.8c-1.5,0-3,0.6-4.1,1.7
			C16.4,24.2,15.8,25.7,15.8,27.2L15.8,27.2z"/>
	</g>
</g>
</svg>
