<svg width="57" height="57" viewBox="0 0 57 57" fill="none" xmlns="http://www.w3.org/2000/svg">
<g clip-path="url(#clip0_508_1227)">
<mask id="mask0_508_1227" style="mask-type:luminance" maskUnits="userSpaceOnUse" x="0" y="0" width="57" height="57">
<path d="M0 0.0698242H56.93V56.9998H0V0.0698242Z" fill="white"/>
</mask>
<g mask="url(#mask0_508_1227)">
<path d="M55.8573 25.9299L31.0004 1.07475C30.6599 0.734027 30.2556 0.463738 29.8106 0.279327C29.3656 0.094917 28.8886 0 28.4069 0C27.9252 0 27.4482 0.094917 27.0032 0.279327C26.5582 0.463738 26.1539 0.734027 25.8134 1.07475L20.6536 6.23697L27.2 12.7833C27.9696 12.5219 28.797 12.4811 29.5886 12.6655C30.3803 12.8499 31.1045 13.2521 31.6794 13.8266C32.2576 14.4054 32.6611 15.1351 32.844 15.9324C33.0269 16.7297 32.9816 17.5624 32.7135 18.3352L39.025 24.6449C39.798 24.3764 40.631 24.3312 41.4286 24.5144C42.2261 24.6976 42.9559 25.1019 43.5342 25.6808C43.9393 26.0858 44.2607 26.5667 44.4799 27.0959C44.6992 27.6252 44.812 28.1924 44.812 28.7653C44.812 29.3382 44.6992 29.9054 44.4799 30.4346C44.2607 30.9639 43.9393 31.4448 43.5342 31.8498C42.7152 32.668 41.6049 33.1275 40.4472 33.1275C39.2895 33.1275 38.1792 32.668 37.3602 31.8498C36.7518 31.2404 36.3373 30.4646 36.1688 29.6201C36.0004 28.7756 36.0855 27.9001 36.4135 27.1039L30.5277 21.2199V36.7072C31.1489 37.0141 31.6881 37.4646 32.1006 38.0213C32.5131 38.5781 32.787 39.2251 32.8996 39.9088C33.0122 40.5925 32.9604 41.2932 32.7483 41.9528C32.5362 42.6125 32.17 43.2121 31.68 43.7021C31.275 44.1072 30.7941 44.4286 30.2649 44.6478C29.7357 44.8671 29.1684 44.9799 28.5955 44.9799C28.0227 44.9799 27.4554 44.8671 26.9262 44.6478C26.3969 44.4286 25.9161 44.1072 25.511 43.7021C25.1058 43.297 24.7844 42.8161 24.5651 42.2868C24.3458 41.7575 24.2329 41.1902 24.2329 40.6173C24.2329 40.0443 24.3458 39.477 24.5651 38.9477C24.7844 38.4184 25.1058 37.9375 25.511 37.5325C25.9192 37.1234 26.4044 36.7994 26.9385 36.5789V20.9492C26.4066 20.7301 25.9231 20.408 25.516 20.0015C25.1089 19.595 24.7861 19.1121 24.5662 18.5805C24.3463 18.0489 24.2336 17.479 24.2345 16.9037C24.2355 16.3284 24.3501 15.759 24.5718 15.2281L18.1171 8.77223L1.07167 25.8134C0.384793 26.5016 -0.000976562 27.4342 -0.000976562 28.4066C-0.000976563 29.3789 0.384793 30.3115 1.07167 30.9998L25.9299 55.858C26.6181 56.5446 27.5506 56.9303 28.5227 56.9303C29.4949 56.9303 30.4274 56.5446 31.1156 55.858L55.8573 31.1162C56.5442 30.428 56.93 29.4954 56.93 28.523C56.93 27.5507 56.5442 26.6181 55.8573 25.9299Z" fill="#F03C2E"/>
</g>
</g>
<defs>
<clipPath id="clip0_508_1227">
<rect width="57" height="57" fill="white"/>
</clipPath>
</defs>
</svg>
