<svg width="49" height="49" viewBox="0 0 49 49" fill="none" xmlns="http://www.w3.org/2000/svg">
<g clip-path="url(#clip0_508_1235)">
<path d="M22.4257 28.2485C22.1554 28.2484 21.8963 28.1412 21.705 27.9504L20.1839 26.4335C20.0863 26.3394 20.0084 26.2269 19.9547 26.1024C19.901 25.978 19.8727 25.844 19.8713 25.7085C19.87 25.573 19.8956 25.4385 19.9468 25.313C19.9979 25.1875 20.0735 25.0734 20.1692 24.9774C20.265 24.8814 20.3788 24.8055 20.5042 24.754C20.6296 24.7025 20.764 24.6764 20.8995 24.6774C21.035 24.6784 21.169 24.7064 21.2937 24.7597C21.4183 24.813 21.531 24.8906 21.6253 24.988L22.4257 25.7863L24.8369 23.3771C25.0283 23.1854 25.288 23.0776 25.5589 23.0774C25.8298 23.0772 26.0897 23.1846 26.2814 23.3761C26.473 23.5675 26.5808 23.8272 26.581 24.0981C26.5812 24.369 26.4738 24.6289 26.2824 24.8205L23.1484 27.9504C22.9561 28.141 22.6964 28.2481 22.4257 28.2485ZM41.5214 27.9484L44.6533 24.8205C44.8392 24.628 44.9421 24.3701 44.9398 24.1025C44.9375 23.8348 44.8301 23.5788 44.6409 23.3895C44.4516 23.2002 44.1956 23.0929 43.9279 23.0906C43.6602 23.0882 43.4024 23.1911 43.2098 23.3771L40.7986 25.7863L39.9983 24.988C39.904 24.8906 39.7912 24.813 39.6666 24.7597C39.542 24.7064 39.408 24.6784 39.2725 24.6774C39.1369 24.6764 39.0025 24.7025 38.8772 24.754C38.7518 24.8055 38.6379 24.8814 38.5422 24.9774C38.4465 25.0734 38.3709 25.1875 38.3197 25.313C38.2686 25.4385 38.2429 25.573 38.2443 25.7085C38.2457 25.844 38.274 25.978 38.3277 26.1024C38.3813 26.2269 38.4593 26.3394 38.5569 26.4335L40.08 27.9504C40.1744 28.0455 40.2868 28.1209 40.4106 28.1723C40.5344 28.2236 40.6671 28.25 40.8011 28.2498C40.9351 28.2496 41.0678 28.2229 41.1914 28.1712C41.315 28.1194 41.4272 28.0437 41.5214 27.9484ZM9.24263 15.2145L14.4632 11.9785C14.7579 11.7961 15.0014 11.5417 15.1706 11.2392C15.3399 10.9367 15.4293 10.5961 15.4305 10.2495C15.4318 9.9029 15.3447 9.56168 15.1776 9.25801C15.0105 8.95434 14.7689 8.69821 14.4754 8.51375L9.25488 5.22667C8.94601 5.0321 8.59063 4.9239 8.22574 4.91334C7.86085 4.90278 7.4998 4.99024 7.1802 5.16662C6.8606 5.34299 6.59413 5.60183 6.40854 5.91618C6.22295 6.23052 6.12504 6.58888 6.125 6.95392V13.4791C6.1256 13.8427 6.2232 14.1995 6.40772 14.5128C6.59224 14.8261 6.85701 15.0845 7.1747 15.2614C7.4924 15.4382 7.85153 15.5271 8.21503 15.5189C8.57854 15.5106 8.93327 15.4056 9.24263 15.2145ZM13.3872 10.241L8.16667 13.4791V6.95392L13.3872 10.241ZM49 25.5208C49 29.4613 45.7946 32.6667 41.8542 32.6667C40.1376 32.6634 38.4795 32.0428 37.1826 30.9183C35.8857 29.7939 35.0365 28.2404 34.79 26.5417H30.5433C30.2969 28.2404 29.4476 29.7939 28.1507 30.9183C26.8538 32.0428 25.1957 32.6634 23.4792 32.6667C21.7625 32.6638 20.1042 32.0434 18.8072 30.9188C17.5102 29.7943 16.6611 28.2406 16.415 26.5417H15.2758C13.2913 26.5417 11.4987 25.727 10.2083 24.4143V34.7083C10.2083 38.0853 12.9564 40.8333 16.3333 40.8333H16.415C16.9132 37.3768 19.8858 34.7083 23.4792 34.7083C27.4196 34.7083 30.625 37.9137 30.625 41.8542C30.625 45.7946 27.4196 49 23.4792 49C21.7625 48.9971 20.1042 48.3768 18.8072 47.2522C17.5102 46.1276 16.6611 44.5739 16.415 42.875H16.3333C11.8294 42.875 8.16667 39.2123 8.16667 34.7083V20.2105C5.86263 19.737 3.79229 18.4837 2.30465 16.6617C0.817012 14.8397 0.00305669 12.5605 0 10.2083C0 4.57946 4.57946 0 10.2083 0C15.8372 0 20.4167 4.57946 20.4167 10.2083C20.4131 12.8973 19.3497 15.4765 17.4571 17.3867C15.5645 19.2969 12.9952 20.3841 10.3063 20.4126C10.5333 21.5639 11.1528 22.6008 12.0591 23.3462C12.9654 24.0917 14.1023 24.4995 15.2758 24.5H16.415C16.9132 21.0435 19.8858 18.375 23.4792 18.375C25.1958 18.3779 26.8541 18.9982 28.1511 20.1228C29.4482 21.2474 30.2973 22.8011 30.5433 24.5H34.79C35.0365 22.8013 35.8857 21.2478 37.1826 20.1233C38.4795 18.9988 40.1376 18.3783 41.8542 18.375C45.7946 18.375 49 21.5804 49 25.5208ZM18.375 41.8542C18.375 44.6676 20.6658 46.9583 23.4792 46.9583C26.2926 46.9583 28.5833 44.6676 28.5833 41.8542C28.5833 39.0408 26.2926 36.75 23.4792 36.75C20.6658 36.75 18.375 39.0408 18.375 41.8542ZM10.2083 18.375C14.7123 18.375 18.375 14.7123 18.375 10.2083C18.375 5.70442 14.7123 2.04167 10.2083 2.04167C5.70442 2.04167 2.04167 5.70442 2.04167 10.2083C2.04167 14.7123 5.70442 18.375 10.2083 18.375ZM28.5833 25.5208C28.5833 22.7074 26.2926 20.4167 23.4792 20.4167C20.6658 20.4167 18.375 22.7074 18.375 25.5208C18.375 28.3343 20.6658 30.625 23.4792 30.625C26.2926 30.625 28.5833 28.3343 28.5833 25.5208ZM46.9583 25.5208C46.9583 22.7074 44.6676 20.4167 41.8542 20.4167C39.0408 20.4167 36.75 22.7074 36.75 25.5208C36.75 28.3343 39.0408 30.625 41.8542 30.625C44.6676 30.625 46.9583 28.3343 46.9583 25.5208ZM20.4167 41.8542C20.4167 42.1249 20.5242 42.3846 20.7157 42.576C20.9071 42.7675 21.1668 42.875 21.4375 42.875C21.7082 42.875 21.9679 42.7675 22.1593 42.576C22.3508 42.3846 22.4583 42.1249 22.4583 41.8542C22.4583 41.5834 22.3508 41.3238 22.1593 41.1323C21.9679 40.9409 21.7082 40.8333 21.4375 40.8333C21.1668 40.8333 20.9071 40.9409 20.7157 41.1323C20.5242 41.3238 20.4167 41.5834 20.4167 41.8542ZM24.5 41.8542C24.5 42.1249 24.6076 42.3846 24.799 42.576C24.9904 42.7675 25.2501 42.875 25.5208 42.875C25.7916 42.875 26.0512 42.7675 26.2427 42.576C26.4341 42.3846 26.5417 42.1249 26.5417 41.8542C26.5417 41.5834 26.4341 41.3238 26.2427 41.1323C26.0512 40.9409 25.7916 40.8333 25.5208 40.8333C25.2501 40.8333 24.9904 40.9409 24.799 41.1323C24.6076 41.3238 24.5 41.5834 24.5 41.8542ZM49 41.8542C49 45.7946 45.7946 49 41.8542 49C40.137 48.9966 38.4784 48.3755 37.1814 47.2501C35.8844 46.1248 35.0356 44.5704 34.79 42.8709C34.7757 42.873 34.7635 42.8811 34.7471 42.8811L33.714 42.9158H33.6793C33.4161 42.9091 33.1656 42.8008 32.9803 42.6137C32.795 42.4265 32.6891 42.175 32.6849 41.9117C32.6807 41.6484 32.7784 41.3936 32.9576 41.2006C33.1369 41.0077 33.3837 40.8914 33.6467 40.8762L34.6798 40.8415C34.7165 40.8374 34.7512 40.8538 34.7859 40.8558C35.0276 39.1523 35.8753 37.5929 37.1735 36.4638C38.4718 35.3347 40.1336 34.7114 41.8542 34.7083C45.7946 34.7083 49 37.9137 49 41.8542ZM46.9583 41.8542C46.9583 39.0408 44.6676 36.75 41.8542 36.75C39.0408 36.75 36.75 39.0408 36.75 41.8542C36.75 44.6676 39.0408 46.9583 41.8542 46.9583C44.6676 46.9583 46.9583 44.6676 46.9583 41.8542Z" fill="#353741"/>
</g>
<defs>
<clipPath id="clip0_508_1235">
<rect width="49" height="49" fill="white"/>
</clipPath>
</defs>
</svg>
