<svg width="39" height="56" viewBox="0 0 39 56" fill="none" xmlns="http://www.w3.org/2000/svg">
<path d="M25.9537 5.75732V16.2138L37.7041 46.3933C37.7041 46.3933 41.2913 53.7639 31.0314 55.5599H7.62528C7.62528 55.5599 -1.93761 54.562 0.354953 46.9901L12.7033 16.2142V5.75732H25.9537Z" fill="#009688"/>
<path d="M26.2011 4.54164H12.1054C10.9638 4.54164 10.0352 3.52603 10.0352 2.27122C10.0352 1.01561 10.9634 0 12.1054 0H26.2011C27.348 0 28.275 1.01561 28.275 2.27122C28.275 3.52603 27.3476 4.54164 26.2011 4.54164Z" fill="#004D40"/>
<path d="M22.4833 22.8306C23.9958 22.8306 25.2293 24.3085 25.2293 26.1387C25.2293 27.961 23.995 29.4425 22.4833 29.4425C20.9671 29.4425 19.7373 27.961 19.7373 26.1387C19.7373 24.3077 20.9671 22.8306 22.4833 22.8306Z" fill="white"/>
<path d="M14.054 31.4123C15.3324 31.4123 16.3687 30.1632 16.3687 28.6224C16.3687 27.0816 15.3324 25.8325 14.054 25.8325C12.7756 25.8325 11.7393 27.0816 11.7393 28.6224C11.7393 30.1632 12.7756 31.4123 14.054 31.4123Z" fill="white"/>
<path d="M26.999 15.5208V10.5475C26.999 10.5475 33.3057 9.15694 36.4576 16.4925C36.4576 16.4925 31.5455 20.0713 26.999 15.5208Z" fill="#004D40"/>
<path d="M11.5525 15.5208V10.5475C11.5525 10.5475 5.24504 9.15694 2.09473 16.4925C2.09473 16.4925 7.00202 20.0713 11.5525 15.5208Z" fill="#004D40"/>
<path d="M30.7909 36.1019C20.5354 32.9205 11.9132 34.6284 7.69896 35.9194L3.44928 46.1484C1.53606 52.2549 9.5248 53.0575 9.5248 53.0575H29.0738C37.6429 51.6098 34.648 45.6692 34.648 45.6692L30.7909 36.1019Z" fill="white"/>
<path d="M16.0104 39.9028C16.0104 41.0058 14.528 41.903 12.7022 41.903C10.8763 41.903 9.39844 41.0054 9.39844 39.9028C9.39844 38.7954 10.8763 37.9014 12.7022 37.9014C14.5288 37.9022 16.0104 38.7954 16.0104 39.9028Z" fill="#004D40"/>
<path d="M27.775 39.9028C27.775 41.0058 26.2927 41.903 24.4713 41.903C22.6402 41.903 21.1631 41.0054 21.1631 39.9028C21.1631 38.7954 22.6402 37.9014 24.4713 37.9014C26.2935 37.9022 27.775 38.7954 27.775 39.9028Z" fill="#004D40"/>
</svg>
