<svg width="50" height="50" viewBox="0 0 50 50" fill="none" xmlns="http://www.w3.org/2000/svg">
<path d="M2.32538 36.625C1.47955 41.6917 2.86497 45.7583 6.20872 48.0604C7.92538 49.2729 10.0629 50 12.3733 50C12.3796 50 12.3858 50 12.3921 50C16.2296 50 20.1254 48.0896 23.8921 46.2354C26.5775 44.9187 29.3504 43.5437 32.0796 42.8771C33.0879 42.6312 34.1379 42.4875 35.2462 42.3271C37.4941 42.0083 39.815 41.6771 41.9004 40.4729C44.2712 39.1083 45.965 36.8062 46.4754 34.0917L46.4837 34.0333C46.8483 31.9625 46.4837 29.8792 45.5525 28.0542C46.1775 27.0542 46.5296 25.8833 46.5296 24.6229L46.5337 24.625C46.5275 21.6271 44.4754 19.1062 41.69 18.3646L41.6421 18.3542L47.9171 0H16.8191L23.1108 18.4125C20.3671 19.225 18.4025 21.7021 18.3983 24.6375C18.3983 26.8104 19.49 28.7354 21.1566 29.9208C20.4608 30.8875 19.7108 31.7354 18.8879 32.5042L18.8796 32.5125C17.3733 33.9375 15.5962 35.0958 13.6379 35.9021L13.5254 35.9437C11.7733 34.7708 11.015 32.7021 11.7004 30.8479C14.3837 30.0021 16.2941 27.5521 16.2941 24.6604C16.2941 21.0917 13.3858 18.1958 9.78997 18.1812H9.78372C6.17538 18.1854 3.25038 21.0875 3.24622 24.6667C3.24622 26.4333 3.97538 28.0542 5.14205 29.2125C5.04205 29.4146 4.93788 29.6187 4.8358 29.8354C3.85872 31.8333 2.75038 34.0917 2.32538 36.625ZM43.6879 24.6229L43.6858 24.625C43.6858 26.6354 42.0379 28.2708 40.0108 28.2708C37.9817 28.2646 36.34 26.6312 36.34 24.6187C36.34 23.4625 36.8816 22.4333 37.7254 21.7646L37.7337 21.7583L37.7483 21.7437C37.865 21.6562 37.9962 21.5687 38.1275 21.4833C38.1275 21.4833 38.1442 21.4833 38.1442 21.4687C38.2025 21.4396 38.2608 21.3958 38.3192 21.3646C38.3337 21.3646 38.3483 21.3521 38.3629 21.3521C38.4212 21.3229 38.4941 21.2937 38.5671 21.2646C38.6379 21.2354 38.715 21.2083 38.7733 21.1792C38.7879 21.1792 38.8004 21.1646 38.815 21.1646C38.8733 21.15 38.9317 21.1208 38.9921 21.1062C39.0067 21.1062 39.0337 21.0917 39.0504 21.0917C39.1212 21.0771 39.1816 21.0625 39.2546 21.05H39.2692L39.4879 21.0042C39.5025 21.0042 39.5296 21.0042 39.5462 20.9896C39.6046 20.9896 39.6629 20.975 39.7212 20.975H39.7921C39.865 20.975 39.94 20.9604 40.0254 20.9604H40.215C40.2733 20.9604 40.3192 20.9604 40.3775 20.975H40.4067C40.5233 20.9896 40.64 21.0042 40.7567 21.0333C42.44 21.4 43.6837 22.8667 43.6879 24.6229ZM20.8921 2.89583H43.8483L38.5796 18.3125C38.3608 18.3542 38.1421 18.4271 37.9233 18.5L32.3796 7.28125L26.8171 18.4271C26.5983 18.3562 26.3629 18.3125 26.1296 18.2687L20.8921 2.89583ZM29.3587 19.8937L29.3546 19.8896L32.3754 13.8396L35.4254 20.0208C34.5233 20.9167 33.865 22.0625 33.6025 23.3646H31.3254C31.04 21.9792 30.34 20.7896 29.3587 19.8937ZM21.2421 24.6104C21.2421 24.6083 21.2421 24.6042 21.2421 24.6C21.2421 22.9083 22.4087 21.4854 23.9879 21.0854L24.0129 21.0792V21.0771C24.0837 21.0625 24.1441 21.0479 24.2171 21.0354H24.2587C24.3191 21.0187 24.3754 21.0187 24.4358 21.0042H24.4941C24.5525 21.0042 24.5962 20.9896 24.6546 20.9896H25.2233C25.2816 20.9896 25.3254 21.0042 25.3712 21.0042C25.4004 21.0042 25.4129 21.0042 25.4441 21.0187C25.5004 21.0333 25.5441 21.0333 25.6046 21.0479C25.6191 21.0479 25.6337 21.0479 25.6629 21.0625L25.8671 21.1042H25.8816C25.94 21.1208 25.9983 21.1354 26.0566 21.1646C26.0712 21.1646 26.0858 21.1792 26.115 21.1792C26.1587 21.1937 26.2171 21.2083 26.2629 21.2354C26.2775 21.2354 26.2921 21.25 26.3046 21.25C26.3629 21.2792 26.4212 21.2937 26.4816 21.3229H26.4962C26.5671 21.35 26.6296 21.3854 26.6879 21.4271L26.6858 21.425H26.7004C26.7587 21.4542 26.8171 21.4958 26.8775 21.525C26.8921 21.525 26.8921 21.5396 26.9046 21.5396C26.9629 21.5687 27.0087 21.6125 27.0671 21.6417L27.0816 21.6563C27.2566 21.7854 27.4171 21.9312 27.5775 22.075L27.5921 22.0896C28.215 22.7417 28.6004 23.6229 28.6004 24.5958C28.6004 24.6 28.6004 24.6042 28.6004 24.6104C28.5316 26.5729 26.9129 28.1375 24.9233 28.1375C22.9337 28.1375 21.315 26.5729 21.2462 24.6167V24.6104H21.2421ZM9.65247 20.975C11.6816 20.975 13.3296 22.6125 13.3296 24.6229C13.3296 26.6333 11.6816 28.2708 9.65455 28.2708C7.62747 28.2708 5.97538 26.6354 5.97538 24.625C5.97538 22.6146 7.62538 20.975 9.65247 20.975ZM5.20038 37.0875C5.55038 34.9729 6.52747 32.9917 7.46288 31.0937C7.52122 30.9792 7.56497 30.8771 7.62538 30.7604C7.94413 30.8771 8.28163 30.9646 8.63164 31.0229C8.07747 34.0917 9.65247 37.2604 12.7191 38.825L13.2733 39.1146L13.8691 38.8979C16.4233 38 18.7879 36.5375 20.8754 34.5833C22.0108 33.5312 23.0108 32.3583 23.865 31.0812L23.9108 31.0083C24.2462 31.0646 24.5837 31.0792 24.9191 31.0792C27.94 31.0729 30.4775 29.0375 31.2254 26.2771L31.2358 26.2312H33.6858C34.44 29.0417 36.9837 31.0792 40.0046 31.0792C41.215 31.0792 42.3379 30.7458 43.3046 30.1833C43.6837 31.2667 43.8004 32.3979 43.5962 33.5271C43.2442 35.4437 42.0733 37.0333 40.4629 37.9542L40.4317 37.9708C38.84 38.8833 36.8837 39.1729 34.8254 39.4625C33.4546 39.6375 32.2837 39.85 31.1358 40.1167L31.3816 40.0687C28.3462 40.8083 25.4296 42.2562 22.5983 43.6458C18.9775 45.425 15.5629 47.1042 12.3962 47.1042C12.3816 47.1042 12.365 47.1042 12.3483 47.1042C10.6733 47.1042 9.1233 46.5687 7.86288 45.6646C4.6608 43.4646 4.81913 39.3437 5.20038 37.0875Z" fill="#353741"/>
</svg>
