<svg width="53" height="53" viewBox="0 0 53 53" fill="none" xmlns="http://www.w3.org/2000/svg">
<path d="M2.46492 38.8225C1.56834 44.1932 3.03688 48.5038 6.58126 50.944C8.40093 52.2293 10.6667 53 13.1157 53C13.1223 53 13.129 53 13.1356 53C17.2033 53 21.3329 50.975 25.3256 49.0095C28.1721 47.6139 31.1114 46.1564 34.0044 45.4497C35.0732 45.1891 36.1862 45.0367 37.361 44.8667C39.7438 44.5288 42.2039 44.1777 44.4144 42.9013C46.9275 41.4548 48.7229 39.0146 49.2639 36.1372L49.2728 36.0753C49.6592 33.8802 49.2728 31.6719 48.2857 29.7374C48.9482 28.6774 49.3214 27.4363 49.3214 26.1003L49.3258 26.1025C49.3192 22.9247 47.1439 20.2526 44.1914 19.4665L44.1406 19.4554L50.7921 0H17.8283L24.4975 19.5173C21.5891 20.3785 19.5066 23.0042 19.5022 26.1157C19.5022 28.419 20.6594 30.4595 22.4261 31.7161C21.6885 32.7407 20.8935 33.6395 20.0212 34.4544L20.0123 34.4632C18.4157 35.9737 16.532 37.2016 14.4562 38.0562L14.3369 38.1004C12.4797 36.8571 11.6759 34.6642 12.4024 32.6988C15.2468 31.8022 17.2718 29.2052 17.2718 26.14C17.2718 22.3572 14.189 19.2876 10.3774 19.2721H10.3708C6.54593 19.2765 3.44542 22.3527 3.44101 26.1467C3.44101 28.0193 4.21392 29.7374 5.45059 30.9653C5.34459 31.1795 5.23418 31.3959 5.12597 31.6255C4.09026 33.7433 2.91542 36.1372 2.46492 38.8225ZM46.3092 26.1003L46.307 26.1025C46.307 28.2335 44.5602 29.9671 42.4115 29.9671C40.2606 29.9605 38.5204 28.2291 38.5204 26.0959C38.5204 24.8703 39.0946 23.7793 39.9889 23.0705L39.9978 23.0638L40.0132 23.0484C40.1369 22.9556 40.276 22.8629 40.4151 22.7723C40.4151 22.7723 40.4328 22.7723 40.4328 22.7569C40.4946 22.726 40.5565 22.6796 40.6183 22.6465C40.6338 22.6465 40.6492 22.6332 40.6647 22.6332C40.7265 22.6023 40.8038 22.5714 40.8811 22.5405C40.9562 22.5095 41.0379 22.4808 41.0997 22.4499C41.1152 22.4499 41.1284 22.4345 41.1439 22.4345C41.2057 22.419 41.2676 22.3881 41.3316 22.3726C41.3471 22.3726 41.3758 22.3572 41.3934 22.3572C41.4685 22.3417 41.5326 22.3263 41.6099 22.313H41.6253L41.8572 22.2644C41.8727 22.2644 41.9014 22.2644 41.919 22.249C41.9809 22.249 42.0427 22.2335 42.1045 22.2335H42.1796C42.2569 22.2335 42.3364 22.218 42.4269 22.218H42.6279C42.6897 22.218 42.7383 22.218 42.8001 22.2335H42.8311C42.9547 22.249 43.0784 22.2644 43.2021 22.2953C44.9864 22.684 46.3048 24.2387 46.3092 26.1003ZM22.1456 3.06958H46.4792L40.8944 19.4112C40.6625 19.4554 40.4306 19.5327 40.1987 19.61L34.3224 7.71812L28.4261 19.5327C28.1942 19.4576 27.9447 19.4112 27.6974 19.3649L22.1456 3.06958ZM31.1203 21.0874L31.1159 21.083L34.3179 14.67L37.5509 21.2221C36.5947 22.1717 35.8969 23.3862 35.6186 24.7665H33.2049C32.9024 23.2979 32.1604 22.037 31.1203 21.0874ZM22.5166 26.087C22.5166 26.0848 22.5166 26.0804 22.5166 26.076C22.5166 24.2828 23.7533 22.7745 25.4272 22.3505L25.4537 22.3439V22.3417C25.5288 22.3262 25.5928 22.3108 25.6701 22.2975H25.7143C25.7783 22.2799 25.8379 22.2799 25.902 22.2644H25.9638C26.0256 22.2644 26.072 22.249 26.1339 22.249H26.7367C26.7986 22.249 26.8449 22.2644 26.8935 22.2644C26.9244 22.2644 26.9377 22.2644 26.9708 22.2799C27.0304 22.2953 27.0768 22.2953 27.1409 22.3108C27.1563 22.3108 27.1718 22.3108 27.2027 22.3262L27.4191 22.3704H27.4346C27.4964 22.3881 27.5582 22.4035 27.6201 22.4345C27.6355 22.4345 27.651 22.4499 27.6819 22.4499C27.7283 22.4654 27.7901 22.4808 27.8387 22.5095C27.8541 22.5095 27.8696 22.525 27.8829 22.525C27.9447 22.5559 28.0065 22.5714 28.0706 22.6023H28.086C28.1611 22.631 28.2274 22.6685 28.2892 22.7127L28.287 22.7105H28.3024C28.3643 22.7414 28.4261 22.7856 28.4901 22.8165C28.5056 22.8165 28.5056 22.832 28.5189 22.832C28.5807 22.8629 28.6293 22.9092 28.6911 22.9402L28.7066 22.9556C28.8921 23.0925 29.0621 23.2471 29.2321 23.3995L29.2476 23.415C29.9079 24.1062 30.3164 25.0403 30.3164 26.0716C30.3164 26.076 30.3164 26.0804 30.3164 26.087C30.2436 28.1673 28.5277 29.8257 26.4187 29.8257C24.3098 29.8257 22.5939 28.1673 22.521 26.0937V26.087H22.5166ZM10.2316 22.2335C12.3826 22.2335 14.1293 23.9692 14.1293 26.1003C14.1293 28.2313 12.3826 29.9671 10.2338 29.9671C8.08513 29.9671 6.33393 28.2335 6.33393 26.1025C6.33393 23.9715 8.08293 22.2335 10.2316 22.2335ZM5.51243 39.3127C5.88343 37.0713 6.91913 34.9712 7.91068 32.9594C7.97251 32.8379 8.01888 32.7297 8.08293 32.606C8.4208 32.7297 8.77855 32.8225 9.14955 32.8843C8.56213 36.1372 10.2316 39.496 13.4823 41.1545L14.0697 41.4615L14.7013 41.2318C17.4087 40.28 19.9152 38.7297 22.1279 36.6583C23.3315 35.5431 24.3915 34.2998 25.2969 32.9461L25.3455 32.8688C25.701 32.9285 26.0588 32.9439 26.4143 32.9439C29.6164 32.9373 32.3061 30.7797 33.0989 27.8537L33.11 27.8051H35.707C36.5064 30.7842 39.2028 32.9439 42.4049 32.9439C43.6879 32.9439 44.8782 32.5906 45.9029 31.9943C46.3048 33.1427 46.4284 34.3418 46.212 35.5387C45.8388 37.5704 44.5977 39.2553 42.8907 40.2314L42.8576 40.2491C41.1704 41.2163 39.0968 41.5233 36.9149 41.8302C35.4619 42.0157 34.2208 42.241 33.004 42.5237L33.2646 42.4729C30.047 43.2568 26.9554 44.7916 23.9542 46.2646C20.1161 48.1505 16.4967 49.9304 13.14 49.9304C13.1246 49.9304 13.1069 49.9304 13.0892 49.9304C11.3137 49.9304 9.67072 49.3629 8.33468 48.4045C4.94047 46.0725 5.1083 41.7044 5.51243 39.3127Z" fill="white"/>
</svg>
