<?xml version="1.0" encoding="utf-8"?>
<!-- Generator: Adobe Illustrator 23.0.6, SVG Export Plug-In . SVG Version: 6.00 Build 0)  -->
<svg width="54px" height="54px" xmlns="http://www.w3.org/2000/svg" xmlns:xlink="http://www.w3.org/1999/xlink" x="0px" y="0px"
	 viewBox="0 0 54 54" style="enable-background:new 0 0 54 54;" xml:space="preserve">
<style type="text/css">
	.st0{fill:#F7DF1E;}
</style>
<path class="st0" d="M0,19.6C0,12.7,0,9.3,1.3,6.7c1.2-2.3,3-4.2,5.3-5.3C9.3,0,12.7,0,19.6,0h14.9c6.8,0,10.3,0,12.9,1.3
	c2.3,1.2,4.2,3,5.3,5.3c1.3,2.6,1.3,6,1.3,12.9v14.9c0,6.8,0,10.3-1.3,12.9c-1.2,2.3-3,4.2-5.3,5.3c-2.6,1.3-6,1.3-12.9,1.3H19.6
	c-6.8,0-10.3,0-12.9-1.3c-2.3-1.2-4.2-3-5.3-5.3C0,44.7,0,41.3,0,34.5V19.6z"/>
<path d="M12.1,43.1l4.1-2.5c0.8,1.4,1.5,2.6,3.3,2.6c1.7,0,2.7-0.7,2.7-3.2V22.8h5.1v17.3c0,5.3-3.1,7.6-7.6,7.6
	C15.7,47.8,13.3,45.7,12.1,43.1"/>
<path d="M30.1,42.6l4.1-2.4c1.1,1.8,2.5,3.1,5,3.1c2.1,0,3.4-1.1,3.4-2.5c0-1.7-1.4-2.4-3.7-3.4l-1.3-0.5c-3.7-1.6-6.1-3.5-6.1-7.6
	c0-3.8,2.9-6.7,7.4-6.7c3.2,0,5.5,1.1,7.2,4.1l-4,2.5c-0.9-1.6-1.8-2.2-3.3-2.2c-1.5,0-2.4,0.9-2.4,2.2c0,1.5,0.9,2.1,3.1,3.1
	l1.3,0.5c4.3,1.8,6.7,3.7,6.7,8c0,4.6-3.6,7.1-8.4,7.1C34.6,47.8,31.6,45.5,30.1,42.6z"/>
</svg>
