<svg width="77" height="32" viewBox="0 0 77 32" fill="none" xmlns="http://www.w3.org/2000/svg">
<g clip-path="url(#clip0_508_1153)">
<path d="M4.01912 28.1012H12.8708V31.3924H0.407227V2.48096H4.01912V28.1012Z" fill="#EC5AF7"/>
<path d="M43.7496 16.9114C43.7496 25.519 36.8819 32 28.4881 32C20.0943 32 13.2266 25.519 13.2266 16.9114C13.2266 8.6582 20.1451 1.82275 28.4881 1.82275C36.8311 1.82275 43.7496 8.6582 43.7496 16.9114ZM40.1377 16.9114C40.1377 10.5316 35.3558 5.21516 28.4881 5.21516C21.6204 5.21516 16.8385 10.5316 16.8385 16.9114C16.8385 23.4936 22.18 28.6076 28.4881 28.6076C34.7962 28.6076 40.1377 23.5443 40.1377 16.9114Z" fill="#EC5AF7"/>
<path d="M63.2843 2.48096H68.0154L54.9413 15.4936L68.2697 31.3924H63.3352L52.3977 17.924L50.9224 19.2911V31.3924H47.3105V2.48096H50.9224V15.0379L63.2843 2.48096Z" fill="#EC5AF7"/>
<path d="M73.9674 31.3924H70.3555V2.48096H73.9674V31.3924Z" fill="#EC5AF7"/>
<path d="M6.00252 26.1264H14.8542V29.4176H2.39062V0.455566H6.00252V26.1264Z" fill="#6CF9FD"/>
<path d="M45.733 14.9368C45.733 23.5443 38.8653 30.0254 30.4715 30.0254C22.0268 30.0254 15.21 23.5443 15.21 14.9368C15.21 6.63295 22.1285 -0.151855 30.4715 -0.151855C38.8145 -0.151855 45.733 6.63295 45.733 14.9368ZM42.1211 14.9368C42.1211 8.557 37.3392 3.24055 30.4715 3.24055C23.6547 3.24055 18.8219 8.557 18.8219 14.9368C18.8219 21.519 24.1634 26.6329 30.4715 26.6329C36.7796 26.6329 42.1211 21.5697 42.1211 14.9368Z" fill="#6CF9FD"/>
<path d="M65.2679 0.455566H69.999L56.874 13.4682L70.2024 29.4176H65.2679L54.2796 15.9492L52.8043 17.3163V29.4176H49.1924V0.455566H52.8043V13.0125L65.2679 0.455566Z" fill="#6CF9FD"/>
<path d="M76.0025 29.4176H72.3906V0.455566H76.0025V29.4176Z" fill="#6CF9FD"/>
<path d="M5.03679 27.0885H13.8885V30.3797H1.37402V1.46826H4.98592V27.0885H5.03679Z" fill="white"/>
<path d="M44.7672 15.9494C44.7672 24.557 37.8995 31.0381 29.5057 31.0381C21.1118 31.0381 14.2441 24.557 14.2441 15.9494C14.2441 7.64565 21.1627 0.86084 29.5057 0.86084C37.8486 0.86084 44.7672 7.64565 44.7672 15.9494ZM41.1044 15.9494C41.1044 9.5697 36.3225 4.25324 29.4548 4.25324C22.5871 4.25324 17.8052 9.5697 17.8052 15.9494C17.8052 22.5317 23.1467 27.6456 29.4548 27.6456C35.7629 27.6456 41.1044 22.5317 41.1044 15.9494Z" fill="white"/>
<path d="M64.2513 1.46826H68.9824L55.8574 14.4809L69.1858 30.4303H64.2513L53.263 16.9619L51.7877 18.329V30.4303H48.1758V1.46826H51.7877V14.0252L64.2513 1.46826Z" fill="white"/>
<path d="M74.9859 30.4303H71.374V1.46826H74.9859V30.4303Z" fill="white"/>
<path d="M30.6247 23.7976C34.1648 23.7976 37.0345 20.9413 37.0345 17.4178C37.0345 13.8944 34.1648 11.0381 30.6247 11.0381C27.0846 11.0381 24.2148 13.8944 24.2148 17.4178C24.2148 20.9413 27.0846 23.7976 30.6247 23.7976Z" fill="#00C3FF"/>
<path d="M30.6248 20.6078C32.3949 20.6078 33.8298 19.1796 33.8298 17.4179C33.8298 15.6562 32.3949 14.228 30.6248 14.228C28.8548 14.228 27.4199 15.6562 27.4199 17.4179C27.4199 19.1796 28.8548 20.6078 30.6248 20.6078Z" fill="white"/>
<path d="M28.9966 16.4555C30.0642 16.4555 30.9297 15.5941 30.9297 14.5315C30.9297 13.4688 30.0642 12.6074 28.9966 12.6074C27.929 12.6074 27.0635 13.4688 27.0635 14.5315C27.0635 15.5941 27.929 16.4555 28.9966 16.4555Z" fill="white"/>
</g>
<defs>
<clipPath id="clip0_508_1153">
<rect width="76.3077" height="32" fill="white"/>
</clipPath>
</defs>
</svg>
