<?xml version="1.0" encoding="utf-8"?>
<!-- Generator: Adobe Illustrator 23.0.6, SVG Export Plug-In . SVG Version: 6.00 Build 0)  -->
<svg width="54px" height="54px" xmlns="http://www.w3.org/2000/svg" xmlns:xlink="http://www.w3.org/1999/xlink" x="0px" y="0px"
	 viewBox="0 0 54 54" style="enable-background:new 0 0 54 54;" xml:space="preserve">
<style type="text/css">
	.st0{fill:#001E36;}
	.st1{fill:#31A8FF;}
</style>
<path class="st0" d="M0,19.5C0,12.7,0,9.3,1.3,6.7c1.2-2.3,3-4.2,5.3-5.3C9.3,0,12.7,0,19.5,0h14.9c6.8,0,10.3,0,12.9,1.3
	c2.3,1.2,4.2,3,5.3,5.3c1.3,2.6,1.3,6,1.3,12.9v14.9c0,6.8,0,10.3-1.3,12.9c-1.2,2.3-3,4.2-5.3,5.3c-2.6,1.3-6,1.3-12.9,1.3H19.5
	c-6.8,0-10.3,0-12.9-1.3c-2.3-1.2-4.2-3-5.3-5.3C0,44.7,0,41.3,0,34.5V19.5z"/>
<path class="st1" d="M11.6,39.6V15.8c0-0.2,0.1-0.3,0.2-0.3c2.3,0,4.6-0.1,7-0.1c3.8,0,7.9,1.3,9.3,5.2c0.3,1,0.5,2,0.5,3
	c0,2-0.4,3.6-1.3,4.9c-2.5,3.6-6.9,3.6-10.8,3.6v7.4c0,0.2-0.2,0.3-0.3,0.3h-4.3C11.7,39.9,11.6,39.8,11.6,39.6z M16.5,20v7.8
	c1.5,0.1,3.2,0.1,4.7-0.4c1.6-0.5,2.5-1.9,2.5-3.6c0-1.5-0.7-2.8-2.1-3.4C20.1,19.8,18.1,19.8,16.5,20z"/>
<path class="st1" d="M42.6,26.2c-0.7-0.4-1.4-0.6-2.2-0.8c-1-0.2-4.8-1-4.8,1c0,1.1,1.8,1.7,2.6,2c2.7,0.9,5.8,2.6,5.8,6
	c0.1,4.2-4,5.9-7.5,5.9c-1.8,0-3.7-0.3-5.4-1c-0.2-0.1-0.3-0.3-0.3-0.4v-4c0-0.2,0.2-0.3,0.3-0.2c1.6,1,3.6,1.5,5.4,1.5
	c0.8,0,2.5-0.1,2.5-1.3c0-1.2-2-1.7-2.8-2c-1.1-0.4-2.2-1-3.2-1.7c-1.4-1-2.3-2.6-2.2-4.3c0-3.9,3.7-5.7,7.1-5.7
	c1.6,0,3.3,0.1,4.7,0.7c0.2,0.1,0.3,0.3,0.3,0.5V26C43,26.3,42.8,26.3,42.6,26.2z"/>
</svg>
