<svg width="56" height="54" viewBox="0 0 56 54" fill="none" xmlns="http://www.w3.org/2000/svg">
<path d="M38.8019 37.1271C40.8685 36.9133 42.4362 35.1318 42.365 32.9939C42.2937 30.8561 40.5122 29.1458 38.3743 29.1458H38.2318C36.0227 29.217 34.3124 31.0699 34.3836 33.279C34.4549 34.3479 34.8825 35.2743 35.5238 35.9157C33.1009 40.6902 29.3953 44.1821 23.8369 47.1038C20.06 49.0991 16.1406 49.8118 12.2212 49.3129C9.01437 48.8853 6.5202 47.4601 4.95244 45.1085C2.67206 41.6166 2.45827 37.8397 4.38234 34.0629C5.73632 31.3549 7.87418 29.3596 9.22816 28.3619C8.94311 27.4355 8.51554 25.8677 8.30175 24.7275C-2.03123 32.21 -0.962305 42.3292 2.17322 47.1038C4.52487 50.6669 9.29942 52.876 14.5728 52.876C15.998 52.876 17.4233 52.7335 18.8485 52.3772C27.9701 50.5956 34.8825 45.1797 38.8019 37.1271Z" fill="#764ABC"/>
<path d="M51.3448 28.2913C45.9289 21.949 37.9475 18.4572 28.826 18.4572H27.6858C27.0445 17.1745 25.6905 16.3193 24.194 16.3193H24.0515C21.8423 16.3906 20.1321 18.2434 20.2033 20.4525C20.2746 22.5904 22.0561 24.3007 24.194 24.3007H24.3365C25.9043 24.2294 27.2583 23.2317 27.8284 21.8778H29.1111C34.527 21.8778 39.6578 23.4455 44.2899 26.5098C47.853 28.8614 50.4184 31.9257 51.8436 35.6313C53.0551 38.6243 52.9838 41.5461 51.7011 44.0402C49.7058 47.8171 46.3565 49.8837 41.9382 49.8837C39.0877 49.8837 36.3798 49.0286 34.9545 48.3872C34.1707 49.0998 32.7454 50.24 31.7478 50.9527C34.812 52.3779 37.9475 53.1618 40.9406 53.1618C47.7817 53.1618 52.8413 49.3849 54.7654 45.608C56.832 41.4748 56.6894 34.3486 51.3448 28.2913Z" fill="#764ABC"/>
<path d="M15.1426 38.3389C15.2139 40.4768 16.9954 42.1871 19.1333 42.1871H19.2758C21.4849 42.1158 23.1952 40.263 23.124 38.0539C23.0527 35.916 21.2711 34.2057 19.1333 34.2057H18.9908C18.8482 34.2057 18.6345 34.2057 18.4919 34.277C15.5702 29.4312 14.3587 24.1578 14.7863 18.4569C15.0714 14.1811 16.4966 10.4755 18.9908 7.41124C21.0574 4.77455 25.048 3.49184 27.756 3.42057C35.3098 3.27805 38.5165 12.6846 38.7303 16.4615C39.6567 16.6753 41.2245 17.1741 42.2934 17.5304C41.4383 5.98601 34.3121 0 27.4709 0C21.0574 0 15.1426 4.63203 12.791 11.4732C9.51292 20.5947 11.6508 29.3599 15.6415 36.2723C15.2851 36.7712 15.0714 37.5551 15.1426 38.3389Z" fill="#764ABC"/>
</svg>
