<svg width="61" height="54" viewBox="0 0 61 54" fill="none" xmlns="http://www.w3.org/2000/svg">
<path d="M60.3242 26.8668C60.3242 22.8706 55.3198 19.0834 47.6471 16.7349C49.4177 8.91461 48.6307 2.69283 45.1633 0.700873C44.364 0.233624 43.4295 0.0122958 42.409 0.0122958V2.75431C42.9746 2.75431 43.4295 2.86497 43.8107 3.074C45.483 4.03309 46.2084 7.68501 45.6428 12.3821C45.5076 13.5379 45.2862 14.7552 45.0157 15.9971C42.6057 15.4069 39.9743 14.952 37.2077 14.6569C35.5478 12.3821 33.8263 10.3164 32.0926 8.50884C36.1011 4.78315 39.8637 2.74201 42.4213 2.74201V0C39.0398 0 34.6133 2.41002 30.1375 6.59067C25.6618 2.43461 21.2352 0.0491843 17.8538 0.0491843V2.7912C20.3991 2.7912 24.174 4.82004 28.1825 8.52114C26.461 10.3287 24.7396 12.3821 23.1042 14.6569C20.3253 14.952 17.694 15.4069 15.2839 16.0094C15.0011 14.7798 14.7921 13.5871 14.6446 12.4436C14.0666 7.74649 14.7798 4.09457 16.4398 3.12319C16.8087 2.90186 17.2882 2.80349 17.8538 2.80349V0.0614801C16.8209 0.0614801 15.8864 0.282808 15.0749 0.750057C11.6197 2.74201 10.8451 8.9515 12.628 16.7472C4.97989 19.108 0 22.8829 0 26.8668C0 30.863 5.00448 34.6502 12.6772 36.9987C10.9066 44.819 11.6935 51.0408 15.161 53.0327C15.9602 53.5 16.8947 53.7213 17.9276 53.7213C21.309 53.7213 25.7356 51.3113 30.2113 47.1306C34.6871 51.2867 39.1136 53.6721 42.495 53.6721C43.5279 53.6721 44.4624 53.4508 45.2739 52.9835C48.7291 50.9916 49.5038 44.7821 47.7208 36.9864C55.3444 34.6379 60.3242 30.8507 60.3242 26.8668ZM44.3148 18.6654C43.8599 20.2515 43.2943 21.8869 42.6549 23.5223C42.1507 22.5386 41.622 21.5549 41.0441 20.5712C40.4785 19.5876 39.876 18.6285 39.2735 17.694C41.0195 17.9522 42.7041 18.2719 44.3148 18.6654ZM38.6833 31.7606C37.7242 33.4206 36.7405 34.9945 35.7199 36.4577C33.8878 36.6175 32.0311 36.7036 30.1621 36.7036C28.3054 36.7036 26.4487 36.6175 24.6289 36.47C23.6083 35.0068 22.6124 33.4452 21.6533 31.7975C20.7188 30.1867 19.8704 28.5513 19.0957 26.9037C19.8581 25.256 20.7188 23.6083 21.641 21.9976C22.6001 20.3376 23.5838 18.7637 24.6043 17.3005C26.4364 17.1406 28.2931 17.0546 30.1621 17.0546C32.0188 17.0546 33.8755 17.1406 35.6953 17.2882C36.7159 18.7514 37.7119 20.313 38.671 21.9607C39.6055 23.5715 40.4539 25.2068 41.2285 26.8545C40.4539 28.5022 39.6055 30.1498 38.6833 31.7606ZM42.6549 30.1621C43.3189 31.8098 43.8845 33.4575 44.3517 35.0559C42.741 35.4494 41.0441 35.7814 39.2858 36.0396C39.8883 35.0928 40.4908 34.1214 41.0564 33.1255C41.622 32.1418 42.1507 31.1458 42.6549 30.1621ZM30.1867 43.282C29.0432 42.1016 27.8997 40.7859 26.7684 39.3473C27.8751 39.3964 29.0063 39.4333 30.1498 39.4333C31.3057 39.4333 32.4492 39.4087 33.5681 39.3473C32.4615 40.7859 31.318 42.1016 30.1867 43.282ZM21.0385 36.0396C19.2924 35.7814 17.6079 35.4617 15.9971 35.0682C16.4521 33.4821 17.0177 31.8467 17.6571 30.2113C18.1612 31.195 18.6899 32.1787 19.2679 33.1624C19.8458 34.146 20.436 35.1051 21.0385 36.0396ZM30.1252 10.4516C31.2688 11.632 32.4123 12.9477 33.5435 14.3863C32.4369 14.3372 31.3057 14.3003 30.1621 14.3003C29.0063 14.3003 27.8628 14.3249 26.7438 14.3863C27.8505 12.9477 28.994 11.632 30.1252 10.4516ZM21.0262 17.694C20.4237 18.6408 19.8212 19.6121 19.2556 20.6081C18.6899 21.5918 18.1612 22.5755 17.6571 23.5592C16.9931 21.9115 16.4275 20.2638 15.9602 18.6654C17.571 18.2842 19.2679 17.9522 21.0262 17.694ZM9.89829 33.0886C5.5455 31.2319 2.72971 28.7973 2.72971 26.8668C2.72971 24.9363 5.5455 22.4894 9.89829 20.645C10.9558 20.1901 12.1116 19.7843 13.3043 19.4031C14.0052 21.8131 14.9274 24.3215 16.0709 26.8914C14.9397 29.449 14.0298 31.945 13.3412 34.3428C12.1239 33.9616 10.968 33.5435 9.89829 33.0886ZM16.5135 50.6596C14.8413 49.7005 14.1158 46.0486 14.6814 41.3515C14.8167 40.1957 15.038 38.9784 15.3085 37.7365C17.7186 38.3267 20.3499 38.7816 23.1165 39.0767C24.7765 41.3515 26.4979 43.4172 28.2316 45.2247C24.2231 48.9504 20.4606 50.9916 17.903 50.9916C17.3497 50.9793 16.8824 50.8686 16.5135 50.6596ZM45.6797 41.29C46.2576 45.9871 45.5444 49.639 43.8845 50.6104C43.5156 50.8317 43.036 50.9301 42.4704 50.9301C39.9252 50.9301 36.1503 48.9013 32.1418 45.2002C33.8632 43.3926 35.5847 41.3392 37.22 39.0644C39.9989 38.7693 42.6303 38.3144 45.0403 37.7119C45.3231 38.9538 45.5444 40.1465 45.6797 41.29ZM50.4137 33.0886C49.3562 33.5435 48.2004 33.9493 47.0077 34.3305C46.3068 31.9205 45.3846 29.4121 44.2411 26.8422C45.3723 24.2846 46.2822 21.7885 46.9708 19.3908C48.1881 19.772 49.3439 20.1901 50.426 20.645C54.7787 22.5017 57.5945 24.9363 57.5945 26.8668C57.5822 28.7973 54.7665 31.2442 50.4137 33.0886Z" fill="#61DAFB"/>
<path d="M30.1495 32.4861C33.253 32.4861 35.7688 29.9703 35.7688 26.8668C35.7688 23.7634 33.253 21.2476 30.1495 21.2476C27.0461 21.2476 24.5303 23.7634 24.5303 26.8668C24.5303 29.9703 27.0461 32.4861 30.1495 32.4861Z" fill="#61DAFB"/>
</svg>
