<svg width="62" height="40" viewBox="0 0 62 40" fill="none" xmlns="http://www.w3.org/2000/svg">
<g clip-path="url(#clip0_508_1116)">
<path d="M47.9715 13.7283C46.206 13.1765 45.2943 13.3625 43.4424 13.1613C40.5797 12.8509 39.4392 11.7386 38.9554 8.8758C38.6846 7.27771 39.0043 4.93785 38.3131 3.48922C36.9911 0.727049 33.898 -0.511764 30.7904 0.195307C28.1667 0.793154 25.9836 3.40012 25.8627 6.07607C25.7244 9.13141 27.4755 11.7384 30.4823 12.638C31.9108 13.0663 33.4285 13.2818 34.9204 13.3911C37.6564 13.5894 37.8667 15.1014 38.6068 16.346C39.0734 17.1307 39.5256 17.9039 39.5256 20.2435C39.5256 22.5832 39.0705 23.3564 38.6068 24.1411C37.8667 25.3828 36.9537 26.1961 34.2177 26.3973C32.7258 26.5066 31.2052 26.7222 29.7796 27.1504C26.7728 28.0529 25.0217 30.657 25.16 33.7123C25.2809 36.3883 27.464 38.9953 30.0877 39.5931C33.1953 40.303 36.2884 39.0614 37.6104 36.2992C38.3044 34.8506 38.6846 33.2094 38.9554 31.6113C39.4421 28.7485 40.5825 27.6361 43.4424 27.3257C45.2943 27.1245 47.2109 27.3257 48.9462 26.3456C50.7799 25.0135 52.4183 23.0143 52.4183 20.2435C52.4183 17.4727 50.6528 14.5676 47.9715 13.7283Z" fill="#F44250"/>
<path d="M18.6001 26.7372C14.9915 26.7372 12.0479 23.8052 12.0479 20.2109C12.0479 16.6165 14.9915 13.6846 18.6001 13.6846C22.2088 13.6846 25.1524 16.6165 25.1524 20.2109C25.1524 23.8023 22.2059 26.7372 18.6001 26.7372Z" fill="white"/>
<path d="M6.52913 39.9999C2.92627 39.9912 -0.00863634 37.0478 1.90954e-05 33.4505C0.00871291 29.8591 2.96386 26.9358 6.57539 26.9473C10.1811 26.956 13.116 29.8994 13.1045 33.4966C13.0958 37.0852 10.1406 40.0085 6.52913 39.9999Z" fill="white"/>
<path d="M55.2157 39.9998C51.6014 40.0198 48.6347 37.1082 48.6144 33.5225C48.5942 29.9225 51.5175 26.9676 55.1174 26.9474C58.7317 26.9273 61.6984 29.839 61.7187 33.4246C61.7388 37.0217 58.8156 39.9795 55.2157 39.9998Z" fill="white"/>
</g>
<defs>
<clipPath id="clip0_508_1116">
<rect width="62" height="40" fill="white"/>
</clipPath>
</defs>
</svg>
