<svg width="54" height="54" viewBox="0 0 54 54" fill="none" xmlns="http://www.w3.org/2000/svg">
<g clip-path="url(#clip0_651_212)">
<path d="M27 54C41.9117 54 54 41.9117 54 27C54 12.0883 41.9117 0 27 0C12.0883 0 0 12.0883 0 27C0 41.9117 12.0883 54 27 54Z" fill="#C9669A"/>
<path d="M34.7002 6.6001C36.1002 6.6001 37.7002 6.8001 39.2002 7.3001C40.4002 7.7001 41.5002 8.3001 42.4002 9.1001C43.3002 9.9001 43.8002 11.0001 44.0002 12.2001C44.3002 14.0001 43.9002 15.6001 43.2002 17.2001C41.9002 19.9001 39.8002 22.0001 37.1002 23.4001C35.5002 24.2001 33.8002 24.7001 32.1002 25.1001C31.0002 25.3001 29.9002 25.4001 28.8002 25.4001C27.7002 25.4001 26.6002 25.3001 25.6002 25.0001C24.5002 24.6001 23.6002 24.1001 22.9002 23.2001C22.7002 22.9001 22.5002 22.6001 22.4002 22.2001C22.4002 22.1001 22.4002 22.0001 22.4002 21.9001C22.4002 21.8001 22.5002 21.7001 22.6002 21.6001C22.7002 21.5001 22.8002 21.6001 22.9002 21.7001C23.0002 21.8001 23.0002 21.8001 23.1002 21.9001C23.7002 22.6001 24.5002 23.0001 25.4002 23.3001C26.4002 23.6001 27.5002 23.6001 28.6002 23.5001C30.2002 23.3001 31.8002 23.0001 33.3002 22.4001C35.3002 21.6001 37.1002 20.5001 38.6002 19.0001C39.6002 18.0001 40.4002 16.9001 40.9002 15.5001C41.2002 14.8001 41.3002 14.0001 41.2002 13.2001C41.1002 12.1001 40.5002 11.4001 39.6002 10.9001C38.7002 10.4001 37.8002 10.2001 36.9002 10.1001C34.7002 9.8001 32.5002 10.1001 30.4002 10.6001C27.9002 11.2001 25.6002 12.2001 23.4002 13.5001C21.6002 14.5001 20.0002 15.5001 18.4002 16.7001C17.3002 17.6001 16.2002 18.6001 15.4002 19.9001C14.7002 20.9001 14.3002 21.9001 14.1002 23.1001C13.9002 24.4001 14.2002 25.6001 15.0002 26.7001C15.6002 27.6001 16.4002 28.3001 17.2002 29.0001C18.3002 29.9001 19.4002 30.7001 20.5002 31.6001C21.3002 32.2001 22.0002 32.8001 22.7002 33.6001C22.7002 33.7001 22.8002 33.7001 22.9002 33.7001C23.8002 33.4001 24.6002 33.3001 25.5002 33.2001C26.3002 33.1001 27.1002 33.1001 27.9002 33.2001C29.7002 33.3001 31.4002 33.9001 32.7002 35.2001C33.6002 36.0001 34.2002 37.1001 34.5002 38.3001C34.8002 40.1001 34.0002 41.7001 32.3002 42.4001C32.1002 42.5001 31.9002 42.5001 31.8002 42.5001C31.7002 42.5001 31.6002 42.5001 31.6002 42.4001C31.6002 42.3001 31.6002 42.2001 31.7002 42.1001C31.8002 42.0001 32.0002 41.9001 32.2002 41.8001C32.7002 41.4001 33.2002 40.9001 33.4002 40.3001C33.7002 39.5001 33.5002 38.7001 33.2002 38.0001C32.7002 37.0001 31.9002 36.3001 30.8002 35.8001C29.8002 35.3001 28.8002 35.1001 27.7002 35.0001C26.5002 34.9001 25.4002 34.9001 24.2002 35.2001C23.8002 35.3001 23.8002 35.3001 24.0002 35.6001C24.3002 36.4001 24.4002 37.2001 24.4002 38.0001C24.5002 39.9001 24.1002 41.6001 23.1002 43.2001C21.7002 45.4001 19.8002 46.8001 17.3002 47.3001C16.2002 47.5001 15.0002 47.5001 13.9002 47.2001C13.4002 47.1001 13.0002 46.7001 12.6002 46.3001C12.1002 45.6001 11.8002 44.7001 11.8002 43.8001C11.8002 42.1001 12.4002 40.6001 13.6002 39.4001C14.6002 38.3001 15.8002 37.5001 17.0002 36.7001C18.1002 36.0001 19.3002 35.3001 20.5002 34.7001C20.7002 34.6001 20.7002 34.6001 20.5002 34.5001C19.7002 33.8001 18.7002 33.2001 17.8002 32.6001C16.4002 31.6001 15.0002 30.7001 13.8002 29.6001C12.7002 28.6001 11.7002 27.6001 10.9002 26.3001C10.4002 25.5001 10.1002 24.7001 10.0002 23.8001C9.90017 23.1001 10.0002 22.4001 10.2002 21.7001C10.6002 20.2001 11.4002 18.9001 12.3002 17.7001C13.7002 15.9001 15.4002 14.4001 17.2002 13.1001C19.8002 11.2001 22.6002 9.8001 25.6002 8.6001C27.0002 7.9001 28.6002 7.4001 30.2002 7.0001C31.6002 6.7001 33.0002 6.6001 34.7002 6.6001ZM21.9002 38.0001C21.9002 37.4001 21.8002 36.8001 21.7002 36.2001C21.7002 36.1001 21.6002 36.1001 21.5002 36.1001C21.4002 36.2001 21.3002 36.2001 21.2002 36.3001C19.8002 37.0001 18.5002 37.9001 17.3002 39.0001C16.4002 39.8001 15.6002 40.7001 15.2002 41.9001C15.0002 42.4001 14.8002 43.0001 14.8002 43.6001C14.8002 44.4001 15.3002 44.8001 16.0002 44.8001C16.4002 44.8001 16.7002 44.8001 17.1002 44.6001C18.3002 44.2001 19.3002 43.5001 20.1002 42.6001C21.3002 41.2001 21.9002 39.7001 21.9002 38.0001Z" fill="#FEFEFE"/>
<path d="M21.9004 38C21.9004 39.7 21.3004 41.2 20.2004 42.5C19.4004 43.4 18.4004 44.1 17.2004 44.5C16.8004 44.6 16.5004 44.7 16.1004 44.7C15.3004 44.7 14.9004 44.3 14.9004 43.5C14.9004 42.9 15.0004 42.4 15.3004 41.8C15.8004 40.7 16.5004 39.7 17.4004 38.9C18.6004 37.8 19.9004 37 21.3004 36.2C21.4004 36.1 21.5004 36.1 21.6004 36C21.7004 35.9 21.7004 35.9 21.8004 36.1C21.8004 36.7 21.9004 37.4 21.9004 38Z" fill="#C9669A"/>
</g>
<defs>
<clipPath id="clip0_651_212">
<rect width="54" height="54" fill="white"/>
</clipPath>
</defs>
</svg>
