<svg width="54" height="52" viewBox="0 0 54 52" fill="none" xmlns="http://www.w3.org/2000/svg">
<path fill-rule="evenodd" clip-rule="evenodd" d="M27.3666 51.7856C33.2742 30.507 33.1032 30.4119 37.3715 15.2431L38.3972 15.8402C38.9557 16.1634 39.4116 15.8972 39.4116 15.2507V8.01902C40.5437 4.02192 41.4327 0.933774 41.691 0.00390625H46.3164L54 7.17663L48.9548 11.5693L52.7729 15.7261L27.6192 51.7856C27.4958 51.989 27.3248 51.9434 27.3628 51.7856H27.3666Z" fill="#353741"/>
<path fill-rule="evenodd" clip-rule="evenodd" d="M30.1155 5.92712C30.3434 5.92712 30.5276 6.05262 30.5276 6.21235V9.92041C30.5276 10.0725 30.3567 10.2018 30.1287 10.2018H23.9173C23.6893 10.2018 23.4994 10.0744 23.4994 9.91661V6.20855C23.4994 6.05262 23.6893 5.92712 23.9173 5.92712H30.1287H30.1155ZM37.782 1.81973L30.9474 5.79401C31.0272 5.91761 31.0747 6.06023 31.0747 6.21235V9.92041C31.0747 10.1106 30.9987 10.2817 30.8658 10.4243L37.7611 14.4366C38.217 14.7124 38.6159 14.488 38.6159 13.9422V2.31984C38.6159 1.77219 38.217 1.5478 37.7611 1.82163L37.782 1.81973ZM22.9409 9.92041V6.21235C22.9409 6.06023 22.9884 5.91761 23.0663 5.79401L16.2317 1.81973C15.7626 1.5478 15.377 1.77219 15.377 2.31794V13.9365C15.377 14.488 15.7607 14.6972 16.2317 14.4309L23.1366 10.4186C23.0131 10.2665 22.939 10.0954 22.939 9.9052L22.9409 9.92041Z" fill="#353741"/>
<path fill-rule="evenodd" clip-rule="evenodd" d="M26.377 51.7855H26.6315C20.7239 30.5069 20.8949 30.4118 16.6285 15.243L15.6028 15.8401C15.0443 16.1633 14.5865 15.8971 14.5865 15.2506V8.01892C13.4487 4.01992 12.5559 0.931769 12.29 0H7.67412L0 7.17462L5.04327 11.5672L1.2252 15.7241L26.3751 51.7778L26.377 51.7855Z" fill="#353741"/>
<path d="M26.8116 17.9411C27.8418 17.9411 28.677 17.1 28.677 16.0623C28.677 15.0247 27.8418 14.1836 26.8116 14.1836C25.7814 14.1836 24.9463 15.0247 24.9463 16.0623C24.9463 17.1 25.7814 17.9411 26.8116 17.9411Z" fill="#353741"/>
<path d="M26.8116 29.1169C27.8418 29.1169 28.677 28.2757 28.677 27.2381C28.677 26.2005 27.8418 25.3594 26.8116 25.3594C25.7814 25.3594 24.9463 26.2005 24.9463 27.2381C24.9463 28.2757 25.7814 29.1169 26.8116 29.1169Z" fill="#353741"/>
<path d="M26.8116 40.2922C27.8418 40.2922 28.677 39.451 28.677 38.4134C28.677 37.3758 27.8418 36.5347 26.8116 36.5347C25.7814 36.5347 24.9463 37.3758 24.9463 38.4134C24.9463 39.451 25.7814 40.2922 26.8116 40.2922Z" fill="#353741"/>
</svg>
