<svg width="44" height="52" viewBox="0 0 44 52" fill="none" xmlns="http://www.w3.org/2000/svg">
<g clip-path="url(#clip0_508_1150)">
<path d="M1.64055 47.9181L-0.000258168 4.9921C-0.02502 4.31033 0.222333 3.64602 0.689047 3.14087C1.15576 2.63573 1.8049 2.32972 2.49801 2.2881L39.6544 0.00530398C40.0175 -0.0174553 40.3814 0.0331923 40.7237 0.154115C41.066 0.275037 41.3795 0.463664 41.6446 0.708332C41.9098 0.952999 42.121 1.24851 42.2653 1.57658C42.4096 1.90465 42.4839 2.25832 42.4835 2.6157V49.3871C42.4831 49.7402 42.41 50.0896 42.2685 50.4142C42.127 50.7388 41.9201 51.0319 41.6602 51.2758C41.4003 51.5198 41.0928 51.7094 40.7563 51.8335C40.4197 51.9575 40.0611 52.0133 39.7021 51.9975L4.18116 50.4297C3.51385 50.4002 2.88223 50.1253 2.41161 49.6595C1.94099 49.1938 1.66577 48.5739 1.64055 47.9181Z" fill="#FF4785"/>
<path fill-rule="evenodd" clip-rule="evenodd" d="M36.7335 0.18457L31.6205 0.49657L31.3717 6.39077C31.3687 6.46452 31.387 6.5376 31.4245 6.60153C31.4621 6.66546 31.5173 6.71761 31.5838 6.75192C31.6503 6.78623 31.7254 6.80129 31.8003 6.79535C31.8752 6.78941 31.9468 6.76272 32.0069 6.71837L34.3358 4.98157L36.3047 6.50517C36.3642 6.5514 36.4359 6.57994 36.5113 6.58741C36.5867 6.59488 36.6627 6.58098 36.7304 6.54734C36.798 6.5137 36.8544 6.46174 36.893 6.39759C36.9315 6.33345 36.9505 6.25981 36.9478 6.18537L36.7335 0.18457ZM32.7532 19.9186C31.819 20.6336 24.8429 21.1198 24.8429 20.1032C24.9911 16.2214 23.2232 16.0524 22.2388 16.0524C21.3072 16.0524 19.7352 16.328 19.7352 18.408C19.7352 20.527 22.0323 21.723 24.7291 23.127C28.5585 25.1212 33.1978 27.5366 33.1978 33.6102C33.1978 39.4342 28.3812 42.6478 22.2414 42.6478C15.9031 42.6478 10.3641 40.1284 10.9886 31.395C11.2347 30.3706 19.2932 30.615 19.2932 31.395C19.1927 34.9986 20.029 36.0594 22.1408 36.0594C23.7631 36.0594 24.4988 35.1806 24.4988 33.7038C24.4988 31.4652 22.1064 30.1444 19.3515 28.626C15.6226 26.5694 11.2347 24.1488 11.2347 18.5926C11.2347 13.0494 15.1145 9.35217 22.0429 9.35217C28.9714 9.35217 32.7532 12.9922 32.7532 19.9186Z" fill="white"/>
</g>
<defs>
<clipPath id="clip0_508_1150">
<rect width="43.1489" height="52" fill="white"/>
</clipPath>
</defs>
</svg>
