<?xml version="1.0" encoding="utf-8"?>
<!-- Generator: Adobe Illustrator 23.0.6, SVG Export Plug-In . SVG Version: 6.00 Build 0)  -->
<svg width="54" height="54" xmlns="http://www.w3.org/2000/svg" xmlns:xlink="http://www.w3.org/1999/xlink" x="0px" y="0px"
	 viewBox="0 0 54 54" style="enable-background:new 0 0 54 54;" xml:space="preserve">
<style type="text/css">
	.st0{clip-path:url(#SVGID_2_);fill:#3178C6;}
	.st1{clip-path:url(#SVGID_2_);fill:#FFFFFF;}
	.st2{clip-path:url(#SVGID_2_);fill-rule:evenodd;clip-rule:evenodd;fill:#FFFFFF;}
</style>
<g>
	<defs>
		<rect id="SVGID_1_" width="54" height="54"/>
	</defs>
	<clipPath id="SVGID_2_">
		<use xlink:href="#SVGID_1_"  style="overflow:visible;"/>
	</clipPath>
	<path class="st0" d="M0.1,19.9C0.1,13,0.1,9.6,1.4,7c1.2-2.3,3-4.2,5.3-5.3c2.6-1.3,6-1.3,12.9-1.3h14.9c6.8,0,10.3,0,12.9,1.3
		c2.3,1.2,4.2,3,5.3,5.3c1.3,2.6,1.3,6,1.3,12.9v14.9c0,6.8,0,10.3-1.3,12.9c-1.2,2.3-3,4.2-5.3,5.3c-2.6,1.3-6,1.3-12.9,1.3H19.6
		c-6.8,0-10.3,0-12.9-1.3c-2.3-1.2-4.2-3-5.3-5.3c-1.3-2.6-1.3-6-1.3-12.9V19.9z"/>
	<path class="st1" d="M30.1,42.9l4.1-2.4c1.1,1.8,2.5,3.1,5,3.1c2.1,0,3.4-1.1,3.4-2.5c0-1.7-1.4-2.4-3.7-3.4l-1.3-0.5
		c-3.7-1.6-6.1-3.5-6.1-7.6c0-3.8,2.9-6.7,7.4-6.7c3.2,0,5.5,1.1,7.2,4.1l-4,2.5c-0.9-1.6-1.8-2.2-3.3-2.2c-1.5,0-2.4,0.9-2.4,2.2
		c0,1.5,0.9,2.1,3.1,3.1L41,33c4.3,1.8,6.7,3.7,6.7,8c0,4.6-3.6,7.1-8.4,7.1C34.7,48.1,31.6,45.8,30.1,42.9z"/>
	<path class="st2" d="M23,27.5h5.9v-4.4H11.6v4.4h5.9v19.7H23V27.5z"/>
</g>
</svg>
