<svg width="55" height="61" viewBox="0 0 55 61" fill="none" xmlns="http://www.w3.org/2000/svg">
<path d="M27.0564 0L54.1128 15.2483V45.7517L27.0564 61L0 45.7517V15.2483L27.0564 0Z" fill="white"/>
<path d="M49.282 44.7001L27.9515 56.7232V47.361L41.242 40.0748L49.282 44.7001ZM50.7432 43.3835V18.2438L42.9409 22.7367V38.8975L50.7432 43.3835ZM4.74732 44.7001L26.0778 56.7232V47.361L12.7803 40.0748L4.74732 44.7001ZM3.28613 43.3835V18.2438L11.0884 22.7367V38.8975L3.28613 43.3835ZM4.202 16.6137L26.0778 4.28418V13.3328L12.0602 21.0162L11.9484 21.0789L4.202 16.6137ZM49.8274 16.6137L27.9515 4.28418V13.3328L41.9691 21.0092L42.081 21.0719L49.8274 16.6137Z" fill="#8ED6FB"/>
<path d="M26.0776 45.2292L12.9619 38.0404V23.8092L26.0776 31.3532V45.2292ZM27.9513 45.2292L41.067 38.0474V23.8092L27.9513 31.3532V45.2292ZM13.8498 22.1652L27.0145 14.9556L40.1791 22.1652L27.0145 29.7371L13.8498 22.1652Z" fill="#1C78C0"/>
</svg>
