<?xml version="1.0" encoding="utf-8"?>
<!-- Generator: Adobe Illustrator 23.0.6, SVG Export Plug-In . SVG Version: 6.00 Build 0)  -->
<svg width="54px" height="54px" xmlns="http://www.w3.org/2000/svg" xmlns:xlink="http://www.w3.org/1999/xlink" x="0px" y="0px"
	 viewBox="0 0 54 54" style="enable-background:new 0 0 54 54;" xml:space="preserve">
<style type="text/css">
	.st0{fill:#470137;}
	.st1{fill:#FF61F6;}
</style>
<g>
	<path class="st0" d="M0,19.5C0,12.7,0,9.3,1.3,6.7c1.2-2.3,3-4.2,5.3-5.3C9.3,0,12.7,0,19.5,0h14.9c6.8,0,10.3,0,12.9,1.3
		c2.3,1.2,4.2,3,5.3,5.3c1.3,2.6,1.3,6,1.3,12.9v14.9c0,6.8,0,10.3-1.3,12.9c-1.2,2.3-3,4.2-5.3,5.3c-2.6,1.3-6,1.3-12.9,1.3H19.5
		c-6.8,0-10.3,0-12.9-1.3c-2.3-1.2-4.2-3-5.3-5.3C0,44.7,0,41.3,0,34.5V19.5z"/>
	<path class="st1" d="M28.2,15.9l-6.7,11.4l7.2,12.1c0.1,0.3,0,0.3-0.2,0.3h-5.1c-0.4,0-0.6,0-0.8-0.3c-0.5-1-1-1.9-1.4-2.9
		c-0.5-1-1-1.9-1.5-2.9c-0.5-1-1.1-2-1.6-3c-0.5,1-1,2-1.5,3c-0.5,1-1,2-1.5,3c-0.5,1-1,2-1.6,2.9c-0.1,0.2-0.3,0.2-0.5,0.2h-5
		c-0.2,0-0.2-0.1-0.1-0.3l7-11.8L8,15.8c-0.1-0.2,0-0.3,0.2-0.3h5.1c0.2,0,0.4,0.1,0.5,0.3c0.4,1,0.9,2,1.4,3c0.5,1,1.1,2,1.6,2.9
		c0.5,1,1.1,1.9,1.5,2.9c0.5-1,1-2,1.5-3c0.5-1,1-1.9,1.5-2.9c0.5-1,1-2,1.5-2.9c0.1-0.2,0.2-0.3,0.4-0.3h4.7
		C28.2,15.5,28.3,15.8,28.2,15.9z"/>
	<path class="st1" d="M38.6,40.2c-3.2,0-6.5-1.3-8.2-4.2c-0.8-1.4-1.2-3.2-1.2-5.3c0-1.7,0.4-3.4,1.2-4.9c2.1-3.8,6.4-5.2,10.4-4.8
		v-7.3c0-0.2,0.1-0.3,0.2-0.3h4.6c0.1,0,0.2,0.1,0.2,0.2v22c0,0.9,0.1,1.8,0.1,2.7c0,0.2-0.1,0.3-0.2,0.4
		C43.5,39.7,41.1,40.2,38.6,40.2z M40.9,35.6V25.5c-3.3-0.9-6.5,1.6-6.5,5.1C34.3,34.2,37.4,36.7,40.9,35.6z"/>
</g>
</svg>
