<?xml version="1.0" encoding="utf-8"?>
<!-- Generator: Adobe Illustrator 23.0.6, SVG Export Plug-In . SVG Version: 6.00 Build 0)  -->
<svg version="1.1" id="Слой_1" xmlns="http://www.w3.org/2000/svg" xmlns:xlink="http://www.w3.org/1999/xlink" x="0px" y="0px"
	 viewBox="0 0 30 30" style="enable-background:new 0 0 30 30;" xml:space="preserve">
<style type="text/css">
	.st0{fill:#092E44;}
	.st1{opacity:0.7;fill:#092E44;}
	.st2{opacity:0.5;fill:#092E44;}
</style>
<g>
	<path class="st1" d="M15,15c0-1.3,0.5-2.6,1.5-3.5s2.3-1.5,3.6-1.5s2.6,0.5,3.6,1.5s1.5,2.2,1.5,3.5s-0.5,2.6-1.5,3.5
		c-1,1-2.3,1.5-3.6,1.5s-2.6-0.5-3.6-1.5C15.5,17.6,15,16.3,15,15z"/>
	<path class="st1" d="M4.8,25c0-1.3,0.5-2.6,1.5-3.5s2.3-1.5,3.6-1.5H15v5c0,1.3-0.5,2.6-1.5,3.5S11.2,30,9.9,30s-2.6-0.5-3.6-1.5
		C5.3,27.6,4.8,26.3,4.8,25L4.8,25z"/>
	<path class="st0" d="M15,0v10.1h5.1c1.3,0,2.6-0.5,3.6-1.5s1.5-2.2,1.5-3.5s-0.5-2.6-1.5-3.5c-1-1-2.3-1.5-3.6-1.5
		C20.1,0,15,0,15,0z"/>
	<path class="st1" d="M4.8,4.9c0,1.3,0.5,2.6,1.5,3.5c1,1,2.3,1.5,3.6,1.5H15V0H9.9C8.6,0,7.2,0.5,6.3,1.5C5.3,2.4,4.8,3.6,4.8,4.9
		L4.8,4.9z"/>
	<path class="st0" d="M4.8,15c0,1.3,0.5,2.6,1.5,3.5c1,1,2.3,1.5,3.6,1.5H15V10H9.9c-1.3,0-2.6,0.5-3.6,1.5
		C5.3,12.4,4.8,13.7,4.8,15L4.8,15z"/>
</g>
</svg>
