<svg width="400" height="100" viewBox="0 0 400 100" fill="none" xmlns="http://www.w3.org/2000/svg">
<g opacity="0.5" clip-path="url(#clip0_863_665)">
<path d="M111.3 26.1001H77.7002V79.0001H111.3C152 79.0001 183.9 52.5001 183.9 52.5001C183.9 52.5001 152 26.1001 111.3 26.1001Z" stroke="#00C2FF" stroke-width="3" stroke-miterlimit="10"/>
<path d="M65.5 43.8002V52.3002V52.9002V61.4002L77.7 66.1002V52.9002V52.3002V39.2002L65.5 43.8002Z" stroke="#00C2FF" stroke-width="3" stroke-miterlimit="10"/>
<path d="M122.6 65.2999C129.614 65.2999 135.3 59.6139 135.3 52.5999C135.3 45.5859 129.614 39.8999 122.6 39.8999C115.586 39.8999 109.9 45.5859 109.9 52.5999C109.9 59.6139 115.586 65.2999 122.6 65.2999Z" stroke="#00C2FF" stroke-width="3" stroke-miterlimit="10"/>
<path d="M38.9 40.3998C27.9 43.4998 12 52.5998 12 52.5998C12 52.5998 27.9 61.6998 38.9 64.7998C50 67.7998 50.4 56.3998 50.4 56.3998V52.5998V48.7998C50.4 48.8998 50 37.3998 38.9 40.3998Z" stroke="#00C2FF" stroke-width="3" stroke-miterlimit="10"/>
<path d="M111.3 26.1C111.3 26.1 97.8996 7.5 68.5996 7.5C68.5996 7.5 76.6996 12.6 80.8996 26.1" stroke="#00C2FF" stroke-width="3" stroke-miterlimit="10" stroke-linejoin="round"/>
<path d="M111.3 79.1001C111.3 79.1001 97.8996 97.7001 68.5996 97.7001C68.5996 97.7001 76.6996 92.6001 80.8996 79.1001" stroke="#00C2FF" stroke-width="3" stroke-miterlimit="10" stroke-linejoin="round"/>
</g>
<g opacity="0.2" clip-path="url(#clip1_863_665)">
<path d="M324.2 64.5C324.8 62.9 325.2 61.2 325.2 59.4C325.2 51.7 319 45.5 311.3 45.5C305.7 45.5 301 48.8 298.7 53.5C297.3 52.9 295.8 52.5 294.2 52.5C289.3 52.5 285.1 55.7 283.7 60.2C282.3 59.7 280.9 59.5 279.3 59.5C271.6 59.5 265.4 65.7 265.4 73.4C265.4 81.1 271.6 87.3 279.3 87.3H323.8C330.1 87.3 335.2 82.2 335.2 75.9C335.2 69.7 330.3 64.6 324.2 64.5Z" stroke="#00C2FF" stroke-width="3" stroke-miterlimit="10"/>
</g>
<path opacity="0.2" d="M217.498 21.172C217.762 20.4561 217.938 19.6955 217.938 18.8901C217.938 15.4449 215.209 12.6709 211.82 12.6709C209.355 12.6709 207.286 14.1474 206.274 16.2503C205.657 15.9819 204.997 15.8029 204.293 15.8029C202.136 15.8029 200.287 17.2347 199.671 19.2481C199.055 19.0244 198.439 18.9349 197.735 18.9349C194.345 18.9349 191.616 21.7089 191.616 25.1541C191.616 28.5993 194.345 31.3734 197.735 31.3734H217.322C220.095 31.3734 222.34 29.0915 222.34 26.2727C222.34 23.4986 220.183 21.2168 217.498 21.172Z" stroke="#00C2FF" stroke-width="3" stroke-miterlimit="10"/>
<defs>
<clipPath id="clip0_863_665">
<rect width="177.2" height="93.2" fill="white" transform="translate(9 6)"/>
</clipPath>
<clipPath id="clip1_863_665">
<rect width="72.7" height="44.7" fill="white" transform="translate(264 44)"/>
</clipPath>
</defs>
</svg>
