<svg width="400" height="80" viewBox="0 0 400 80" fill="none" xmlns="http://www.w3.org/2000/svg">
<g opacity="0.5" clip-path="url(#clip0_932_86)">
<path d="M190.84 18.8799H163.96V61.1999H190.84C223.4 61.1999 248.92 39.9999 248.92 39.9999C248.92 39.9999 223.4 18.8799 190.84 18.8799Z" stroke="var(--primary-color)" stroke-width="2.5" stroke-miterlimit="10"/>
<path d="M154.2 33.0399V39.8399V40.3199V47.1199L163.96 50.8799V40.3199V39.8399V29.3599L154.2 33.0399Z" stroke="var(--primary-color)" stroke-width="2.5" stroke-miterlimit="10"/>
<path d="M199.88 50.2399C205.491 50.2399 210.04 45.6911 210.04 40.0799C210.04 34.4687 205.491 29.9199 199.88 29.9199C194.269 29.9199 189.72 34.4687 189.72 40.0799C189.72 45.6911 194.269 50.2399 199.88 50.2399Z" stroke="var(--primary-color)" stroke-width="2.5" stroke-miterlimit="10"/>
<path d="M132.92 30.3199C124.12 32.7999 111.4 40.0799 111.4 40.0799C111.4 40.0799 124.12 47.3599 132.92 49.8399C141.8 52.2399 142.12 43.1199 142.12 43.1199V40.0799V37.0399C142.12 37.1199 141.8 27.9199 132.92 30.3199Z" stroke="var(--primary-color)" stroke-width="2.5" stroke-miterlimit="10"/>
<path d="M190.84 18.88C190.84 18.88 180.12 4 156.68 4C156.68 4 163.16 8.08 166.52 18.88" stroke="var(--primary-color)" stroke-width="2.5" stroke-miterlimit="10" stroke-linejoin="round"/>
<path d="M190.84 61.2798C190.84 61.2798 180.12 76.1598 156.68 76.1598C156.68 76.1598 163.16 72.0798 166.52 61.2798" stroke="var(--primary-color)" stroke-width="2.5" stroke-miterlimit="10" stroke-linejoin="round"/>
</g>
<path opacity="0.2" d="M377.04 49.6004C377.52 48.3204 377.84 46.9604 377.84 45.5204C377.84 39.3604 372.88 34.4004 366.72 34.4004C362.24 34.4004 358.48 37.0404 356.64 40.8004C355.52 40.3204 354.32 40.0004 353.04 40.0004C349.12 40.0004 345.76 42.5604 344.64 46.1604C343.52 45.7604 342.4 45.6004 341.12 45.6004C334.96 45.6004 330 50.5604 330 56.7204C330 62.8804 334.96 67.8404 341.12 67.8404H376.72C381.76 67.8404 385.84 63.7604 385.84 58.7204C385.84 53.7604 381.92 49.6804 377.04 49.6004Z" stroke="var(--primary-color)" stroke-width="2.5" stroke-miterlimit="10"/>
<path opacity="0.2" d="M64.04 25.2C64.52 23.92 64.84 22.56 64.84 21.12C64.84 14.96 59.88 10 53.72 10C49.24 10 45.48 12.64 43.64 16.4C42.52 15.92 41.32 15.6 40.04 15.6C36.12 15.6 32.76 18.16 31.64 21.76C30.52 21.36 29.4 21.2 28.12 21.2C21.96 21.2 17 26.16 17 32.32C17 38.48 21.96 43.44 28.12 43.44H63.72C68.76 43.44 72.84 39.36 72.84 34.32C72.84 29.36 68.92 25.28 64.04 25.2Z" stroke="var(--primary-color)" stroke-width="2.5" stroke-miterlimit="10"/>
<path opacity="0.2" d="M296.705 19.9376C296.917 19.3649 297.057 18.7564 297.057 18.1121C297.057 15.356 294.874 13.1367 292.163 13.1367C290.191 13.1367 288.536 14.3179 287.726 16.0003C287.233 15.7855 286.705 15.6423 286.141 15.6423C284.416 15.6423 282.937 16.7877 282.444 18.3985C281.951 18.2195 281.458 18.1479 280.895 18.1479C278.183 18.1479 276 20.3671 276 23.1233C276 25.8794 278.183 28.0987 280.895 28.0987H296.565C298.783 28.0987 300.579 26.2732 300.579 24.0181C300.579 21.7989 298.853 19.9734 296.705 19.9376Z" stroke="var(--primary-color)" stroke-width="2.5" stroke-miterlimit="10"/>
<path opacity="0.2" d="M102.705 61.8009C102.917 61.2282 103.057 60.6197 103.057 59.9754C103.057 57.2192 100.874 55 98.1629 55C96.1909 55 94.5359 56.1812 93.726 57.8635C93.233 57.6488 92.7048 57.5056 92.1414 57.5056C90.416 57.5056 88.937 58.651 88.444 60.2617C87.951 60.0828 87.458 60.0112 86.8946 60.0112C84.1832 60.0112 82 62.2304 82 64.9866C82 67.7427 84.1832 69.962 86.8946 69.962H102.565C104.783 69.962 106.579 68.1365 106.579 65.8814C106.579 63.6622 104.853 61.8367 102.705 61.8009Z" stroke="var(--primary-color)" stroke-width="2.5" stroke-miterlimit="10"/>
<defs>
<clipPath id="clip0_932_86">
<rect width="141.76" height="74.56" fill="white" transform="translate(109 2.7998)"/>
</clipPath>
</defs>
</svg>
