<svg width="400" height="80" viewBox="0 0 400 80" fill="none" xmlns="http://www.w3.org/2000/svg">
<g opacity="0.5">
<path d="M181.731 58.6978C180.359 60.4222 179.575 62.6393 179.575 65.0536C179.575 70.7196 184.132 75.3016 189.766 75.3016C195.401 75.3016 199.958 70.7196 199.958 65.0536V14.9463C199.958 9.28032 195.401 4.69824 189.766 4.69824C184.769 4.69824 180.653 8.24566 179.722 12.9755" stroke="var(--primary-color)" stroke-width="2.5" stroke-miterlimit="10" stroke-linecap="round" stroke-linejoin="round"/>
<path d="M169.043 26.8701C168.602 25.7369 168.357 24.4558 168.357 23.1748C168.357 17.5088 172.914 12.9268 178.549 12.9268C178.941 12.9268 179.333 12.9268 179.676 12.976" stroke="var(--primary-color)" stroke-width="2.5" stroke-miterlimit="10" stroke-linecap="round" stroke-linejoin="round"/>
<path d="M168.356 44.4101C165.612 42.5871 163.799 39.4339 163.799 35.8372C163.799 31.9942 165.906 28.5946 169.041 26.8701" stroke="var(--primary-color)" stroke-width="2.5" stroke-miterlimit="10" stroke-linecap="round" stroke-linejoin="round"/>
<path d="M180.019 67.9608C179.137 68.1579 178.206 68.2564 177.275 68.2564C169.828 68.2564 163.752 62.1962 163.752 54.658C163.752 47.1197 169.779 41.0596 177.275 41.0596C178.059 41.0596 178.794 41.1088 179.529 41.2566" stroke="var(--primary-color)" stroke-width="2.5" stroke-miterlimit="10" stroke-linecap="round" stroke-linejoin="round"/>
<path d="M179.53 47.7596C179.089 46.5771 178.795 45.2468 178.795 43.9165C178.795 40.2706 180.608 37.0681 183.401 35.1465C184.381 34.4568 185.458 33.9641 186.585 33.6685" stroke="var(--primary-color)" stroke-width="2.5" stroke-miterlimit="10" stroke-linecap="round" stroke-linejoin="round"/>
<path d="M182.911 35.5408C181.833 33.9149 181.196 31.9933 181.196 29.924C181.196 27.2142 182.274 24.7014 184.038 22.9277" stroke="var(--primary-color)" stroke-width="2.5" stroke-miterlimit="10" stroke-linecap="round" stroke-linejoin="round"/>
<path d="M218.236 58.6978C219.607 60.4222 220.391 62.6393 220.391 65.0536C220.391 70.7196 215.835 75.3016 210.2 75.3016C204.565 75.3016 200.009 70.7196 200.009 65.0536V14.9463C200.009 9.28032 204.565 4.69824 210.2 4.69824C215.149 4.69824 219.313 8.24566 220.244 12.9755" stroke="var(--primary-color)" stroke-width="2.5" stroke-miterlimit="10" stroke-linecap="round" stroke-linejoin="round"/>
<path d="M230.879 26.8701C231.32 25.7369 231.565 24.4558 231.565 23.1748C231.565 17.5088 227.009 12.9268 221.374 12.9268C220.982 12.9268 220.59 12.9268 220.247 12.976" stroke="var(--primary-color)" stroke-width="2.5" stroke-miterlimit="10" stroke-linecap="round" stroke-linejoin="round"/>
<path d="M231.561 44.4101C234.305 42.5871 236.118 39.4339 236.118 35.8372C236.118 31.9942 234.011 28.5946 230.875 26.8701" stroke="var(--primary-color)" stroke-width="2.5" stroke-miterlimit="10" stroke-linecap="round" stroke-linejoin="round"/>
<path d="M219.904 67.9608C220.786 68.1579 221.717 68.2564 222.648 68.2564C230.096 68.2564 236.171 62.1962 236.171 54.658C236.171 47.1197 230.145 41.0596 222.648 41.0596C221.864 41.0596 221.129 41.1088 220.394 41.2566" stroke="var(--primary-color)" stroke-width="2.5" stroke-miterlimit="10" stroke-linecap="round" stroke-linejoin="round"/>
<path d="M220.393 47.7596C220.834 46.5771 221.128 45.2468 221.128 43.9165C221.128 40.2706 219.315 37.0681 216.523 35.1465C215.543 34.4568 214.465 33.9641 213.338 33.6685" stroke="var(--primary-color)" stroke-width="2.5" stroke-miterlimit="10" stroke-linecap="round" stroke-linejoin="round"/>
<path d="M217.013 35.5408C218.091 33.9149 218.728 31.9933 218.728 29.924C218.728 27.2142 217.65 24.7014 215.886 22.9277" stroke="var(--primary-color)" stroke-width="2.5" stroke-miterlimit="10" stroke-linecap="round" stroke-linejoin="round"/>
</g>
<g opacity="0.2">
<path d="M95.2609 53.9145C94.2491 55.1863 93.6709 56.8215 93.6709 58.602C93.6709 62.7808 97.0315 66.1601 101.187 66.1601C105.343 66.1601 108.703 62.7808 108.703 58.602V21.647C108.703 17.4682 105.343 14.0889 101.187 14.0889C97.5013 14.0889 94.4659 16.7051 93.7793 20.1935" stroke="var(--primary-color)" stroke-width="2.5" stroke-miterlimit="10" stroke-linecap="round" stroke-linejoin="round"/>
<path d="M85.9014 30.4411C85.5762 29.6054 85.3955 28.6606 85.3955 27.7159C85.3955 23.5371 88.7561 20.1577 92.9118 20.1577C93.2009 20.1577 93.4899 20.1577 93.7429 20.1941" stroke="var(--primary-color)" stroke-width="2.5" stroke-miterlimit="10" stroke-linecap="round" stroke-linejoin="round"/>
<path d="M85.3958 43.377C83.3722 42.0325 82.0352 39.7069 82.0352 37.0543C82.0352 34.22 83.589 31.7127 85.9017 30.4409" stroke="var(--primary-color)" stroke-width="2.5" stroke-miterlimit="10" stroke-linecap="round" stroke-linejoin="round"/>
<path d="M93.9971 60.7464C93.3467 60.8917 92.6601 60.9644 91.9735 60.9644C86.4809 60.9644 82 56.4949 82 50.9353C82 45.3757 86.4447 40.9062 91.9735 40.9062C92.5517 40.9062 93.0937 40.9426 93.6358 41.0516" stroke="var(--primary-color)" stroke-width="2.5" stroke-miterlimit="10" stroke-linecap="round" stroke-linejoin="round"/>
<path d="M93.6368 45.8475C93.3115 44.9754 93.0947 43.9943 93.0947 43.0132C93.0947 40.3243 94.4318 37.9623 96.4915 36.5452C97.2142 36.0365 98.0092 35.6731 98.8403 35.4551" stroke="var(--primary-color)" stroke-width="2.5" stroke-miterlimit="10" stroke-linecap="round" stroke-linejoin="round"/>
<path d="M96.13 36.836C95.335 35.6369 94.8652 34.2197 94.8652 32.6936C94.8652 30.695 95.6602 28.8418 96.9611 27.5337" stroke="var(--primary-color)" stroke-width="2.5" stroke-miterlimit="10" stroke-linecap="round" stroke-linejoin="round"/>
<path d="M122.183 53.9145C123.195 55.1863 123.773 56.8215 123.773 58.602C123.773 62.7808 120.412 66.1601 116.256 66.1601C112.101 66.1601 108.74 62.7808 108.74 58.602V21.647C108.74 17.4682 112.101 14.0889 116.256 14.0889C119.906 14.0889 122.978 16.7051 123.664 20.1935" stroke="var(--primary-color)" stroke-width="2.5" stroke-miterlimit="10" stroke-linecap="round" stroke-linejoin="round"/>
<path d="M131.507 30.4411C131.833 29.6054 132.013 28.6606 132.013 27.7159C132.013 23.5371 128.653 20.1577 124.497 20.1577C124.208 20.1577 123.919 20.1577 123.666 20.1941" stroke="var(--primary-color)" stroke-width="2.5" stroke-miterlimit="10" stroke-linecap="round" stroke-linejoin="round"/>
<path d="M132.01 43.377C134.033 42.0325 135.37 39.7069 135.37 37.0543C135.37 34.22 133.817 31.7127 131.504 30.4409" stroke="var(--primary-color)" stroke-width="2.5" stroke-miterlimit="10" stroke-linecap="round" stroke-linejoin="round"/>
<path d="M123.414 60.7464C124.065 60.8917 124.751 60.9644 125.438 60.9644C130.93 60.9644 135.411 56.4949 135.411 50.9353C135.411 45.3757 130.966 40.9062 125.438 40.9062C124.859 40.9062 124.317 40.9426 123.775 41.0516" stroke="var(--primary-color)" stroke-width="2.5" stroke-miterlimit="10" stroke-linecap="round" stroke-linejoin="round"/>
<path d="M123.774 45.8475C124.099 44.9754 124.316 43.9943 124.316 43.0132C124.316 40.3243 122.979 37.9623 120.919 36.5452C120.196 36.0365 119.401 35.6731 118.57 35.4551" stroke="var(--primary-color)" stroke-width="2.5" stroke-miterlimit="10" stroke-linecap="round" stroke-linejoin="round"/>
<path d="M121.28 36.836C122.075 35.6369 122.545 34.2197 122.545 32.6936C122.545 30.695 121.75 28.8418 120.449 27.5337" stroke="var(--primary-color)" stroke-width="2.5" stroke-miterlimit="10" stroke-linecap="round" stroke-linejoin="round"/>
</g>
<g opacity="0.2">
<path d="M277.344 53.9145C276.332 55.1863 275.754 56.8215 275.754 58.602C275.754 62.7808 279.115 66.1601 283.27 66.1601C287.426 66.1601 290.786 62.7808 290.786 58.602V21.647C290.786 17.4682 287.426 14.0889 283.27 14.0889C279.584 14.0889 276.549 16.7051 275.862 20.1935" stroke="var(--primary-color)" stroke-width="2.5" stroke-miterlimit="10" stroke-linecap="round" stroke-linejoin="round"/>
<path d="M267.984 30.4411C267.659 29.6054 267.479 28.6606 267.479 27.7159C267.479 23.5371 270.839 20.1577 274.995 20.1577C275.284 20.1577 275.573 20.1577 275.826 20.1941" stroke="var(--primary-color)" stroke-width="2.5" stroke-miterlimit="10" stroke-linecap="round" stroke-linejoin="round"/>
<path d="M267.479 43.377C265.455 42.0325 264.118 39.7069 264.118 37.0543C264.118 34.22 265.672 31.7127 267.985 30.4409" stroke="var(--primary-color)" stroke-width="2.5" stroke-miterlimit="10" stroke-linecap="round" stroke-linejoin="round"/>
<path d="M276.08 60.7464C275.43 60.8917 274.743 60.9644 274.057 60.9644C268.564 60.9644 264.083 56.4949 264.083 50.9353C264.083 45.3757 268.528 40.9062 274.057 40.9062C274.635 40.9062 275.177 40.9426 275.719 41.0516" stroke="var(--primary-color)" stroke-width="2.5" stroke-miterlimit="10" stroke-linecap="round" stroke-linejoin="round"/>
<path d="M275.72 45.847C275.395 44.9749 275.178 43.9938 275.178 43.0127C275.178 40.3238 276.515 37.9619 278.575 36.5447C279.297 36.036 280.092 35.6726 280.923 35.4546" stroke="var(--primary-color)" stroke-width="2.5" stroke-miterlimit="10" stroke-linecap="round" stroke-linejoin="round"/>
<path d="M278.213 36.8355C277.418 35.6364 276.948 34.2193 276.948 32.6931C276.948 30.6945 277.743 28.8413 279.044 27.5332" stroke="var(--primary-color)" stroke-width="2.5" stroke-miterlimit="10" stroke-linecap="round" stroke-linejoin="round"/>
<path d="M304.266 53.9145C305.278 55.1863 305.856 56.8215 305.856 58.602C305.856 62.7808 302.495 66.1601 298.34 66.1601C294.184 66.1601 290.823 62.7808 290.823 58.602V21.647C290.823 17.4682 294.184 14.0889 298.34 14.0889C301.989 14.0889 305.061 16.7051 305.747 20.1935" stroke="var(--primary-color)" stroke-width="2.5" stroke-miterlimit="10" stroke-linecap="round" stroke-linejoin="round"/>
<path d="M313.591 30.4411C313.916 29.6054 314.096 28.6606 314.096 27.7159C314.096 23.5371 310.736 20.1577 306.58 20.1577C306.291 20.1577 306.002 20.1577 305.749 20.1941" stroke="var(--primary-color)" stroke-width="2.5" stroke-miterlimit="10" stroke-linecap="round" stroke-linejoin="round"/>
<path d="M314.093 43.377C316.116 42.0325 317.453 39.7069 317.453 37.0543C317.453 34.22 315.9 31.7127 313.587 30.4409" stroke="var(--primary-color)" stroke-width="2.5" stroke-miterlimit="10" stroke-linecap="round" stroke-linejoin="round"/>
<path d="M305.497 60.7464C306.148 60.8917 306.834 60.9644 307.521 60.9644C313.013 60.9644 317.494 56.4949 317.494 50.9353C317.494 45.3757 313.049 40.9062 307.521 40.9062C306.943 40.9062 306.4 40.9426 305.858 41.0516" stroke="var(--primary-color)" stroke-width="2.5" stroke-miterlimit="10" stroke-linecap="round" stroke-linejoin="round"/>
<path d="M305.857 45.847C306.182 44.9749 306.399 43.9938 306.399 43.0127C306.399 40.3238 305.062 37.9619 303.002 36.5447C302.279 36.036 301.484 35.6726 300.653 35.4546" stroke="var(--primary-color)" stroke-width="2.5" stroke-miterlimit="10" stroke-linecap="round" stroke-linejoin="round"/>
<path d="M303.363 36.8355C304.158 35.6364 304.628 34.2193 304.628 32.6931C304.628 30.6945 303.833 28.8413 302.532 27.5332" stroke="var(--primary-color)" stroke-width="2.5" stroke-miterlimit="10" stroke-linecap="round" stroke-linejoin="round"/>
</g>
</svg>
