<svg width="400" height="100" viewBox="0 0 400 100" fill="none" xmlns="http://www.w3.org/2000/svg">
<g opacity="0.5">
<path d="M180.3 18H164.5V80.7H180.3V18Z" stroke="#EC5AF7" stroke-width="3" stroke-miterlimit="10"/>
<path d="M157.1 18C155 18 153 18.5 151.2 19.5L127.3 32H114.3C108.5 32 103.8 36.7 103.8 42.5V56.2C103.8 62 108.5 66.7 114.3 66.7H127.3L151.2 79.3C153 80.3 155.1 80.8 157.1 80.8H164.5V18H157.1Z" stroke="#EC5AF7" stroke-width="3" stroke-miterlimit="10"/>
<path d="M200.6 39.6999H180.2V29.8999H200.6C203.3 29.8999 205.5 32.0999 205.5 34.7999C205.5 37.4999 203.3 39.6999 200.6 39.6999Z" stroke="#EC5AF7" stroke-width="3" stroke-miterlimit="10"/>
<path d="M200.6 68.8H180.2V59H200.6C203.3 59 205.5 61.2 205.5 63.9C205.5 66.6 203.3 68.8 200.6 68.8Z" stroke="#EC5AF7" stroke-width="3" stroke-miterlimit="10"/>
<path d="M104 49.5001L0 49.5" stroke="#EC5AF7" stroke-width="3" stroke-miterlimit="10"/>
<path d="M219.073 80.7153L234.873 80.7153L234.873 18.0153L219.073 18.0153L219.073 80.7153Z" stroke="#EC5AF7" stroke-width="3" stroke-miterlimit="10"/>
<path d="M242.3 18C244.4 18 246.4 18.5 248.2 19.5L272.1 32.1H285.1C290.9 32.1 295.6 36.8 295.6 42.6V56.3C295.6 62.1 290.9 66.8 285.1 66.8H272.1L248.2 79.4C246.4 80.4 244.3 80.9 242.3 80.9H234.9V18H242.3Z" stroke="#EC5AF7" stroke-width="3" stroke-miterlimit="10"/>
<path d="M295.5 49.3999H400" stroke="#EC5AF7" stroke-width="3" stroke-miterlimit="10"/>
</g>
</svg>
