<svg width="400" height="80" viewBox="0 0 400 80" fill="none" xmlns="http://www.w3.org/2000/svg">
<g opacity="0.5">
<path d="M184.24 14.3999H171.6V64.5599H184.24V14.3999Z" stroke="var(--secondary-color)" stroke-width="2.5" stroke-miterlimit="10"/>
<path d="M165.68 14.3999C164 14.3999 162.4 14.7999 160.96 15.5999L141.84 25.5999H131.44C126.8 25.5999 123.04 29.3599 123.04 33.9999V44.9599C123.04 49.5999 126.8 53.3599 131.44 53.3599H141.84L160.96 63.4399C162.4 64.2399 164.08 64.6399 165.68 64.6399H171.6V14.3999H165.68Z" stroke="var(--secondary-color)" stroke-width="2.5" stroke-miterlimit="10"/>
<path d="M200.48 31.7599H184.16V23.9199H200.48C202.64 23.9199 204.4 25.6799 204.4 27.8399C204.4 29.9999 202.64 31.7599 200.48 31.7599Z" stroke="var(--secondary-color)" stroke-width="2.5" stroke-miterlimit="10"/>
<path d="M200.48 55.0402H184.16V47.2002H200.48C202.64 47.2002 204.4 48.9602 204.4 51.1202C204.4 53.2802 202.64 55.0402 200.48 55.0402Z" stroke="var(--secondary-color)" stroke-width="2.5" stroke-miterlimit="10"/>
<path d="M123.2 39.6001L0 39.6001" stroke="var(--secondary-color)" stroke-width="2.5" stroke-miterlimit="10"/>
<path d="M215.258 64.5723L227.898 64.5723L227.898 14.4123L215.258 14.4123L215.258 64.5723Z" stroke="var(--secondary-color)" stroke-width="2.5" stroke-miterlimit="10"/>
<path d="M233.84 14.3999C235.52 14.3999 237.12 14.7999 238.56 15.5999L257.68 25.6799H268.08C272.72 25.6799 276.48 29.4399 276.48 34.0799V45.0399C276.48 49.6799 272.72 53.4399 268.08 53.4399H257.68L238.56 63.5199C237.12 64.3199 235.44 64.7199 233.84 64.7199H227.92V14.3999H233.84Z" stroke="var(--secondary-color)" stroke-width="2.5" stroke-miterlimit="10"/>
<path d="M276.4 39.52H400" stroke="var(--secondary-color)" stroke-width="2.5" stroke-miterlimit="10"/>
</g>
</svg>
