<svg width="41" height="44" viewBox="0 0 41 44" fill="none" xmlns="http://www.w3.org/2000/svg">
<path d="M40.8116 13.7347C40.5509 12.7704 39.743 11.9885 38.7527 11.78C37.7362 11.5715 36.7719 11.9364 36.1725 12.588C36.0683 12.6922 35.964 12.8225 35.8858 12.9528C32.3153 17.4094 29.1879 17.7222 29.1879 17.7222C24.2361 14.0735 23.1936 2.6062 23.1936 2.6062C23.1154 1.14673 21.9427 0 20.4571 0C18.9716 0 17.7988 1.14673 17.7206 2.6062C17.7206 2.6062 16.6781 14.0735 11.7263 17.7222C11.7263 17.7222 8.5989 17.4094 5.0284 12.9528C4.95021 12.8225 4.84596 12.7183 4.74172 12.588C4.11623 11.9103 3.178 11.5715 2.16158 11.78C1.17122 11.9885 0.363298 12.7443 0.102677 13.7347C-0.0536949 14.3081 -0.0276337 14.8293 0.1548 15.3245L6.09694 39.2234C6.35756 40.2137 7.24367 40.9174 8.28615 40.9174H20.0923H20.3529H32.6802C33.7227 40.9174 34.6088 40.2137 34.8694 39.2234L40.8116 15.3245C40.9419 14.8293 40.9679 14.3081 40.8116 13.7347Z" fill="black"/>
</svg>
