<svg width="100" height="100" viewBox="0 0 100 100" fill="none" xmlns="http://www.w3.org/2000/svg">
<g clip-path="url(#clip0_870_673)">
<path d="M99.4531 47.2394L98.151 44.0623C97.7083 43.0207 97.526 41.8748 97.6302 40.755L97.8906 37.3436C98.0469 35.4425 97.4219 33.5675 96.1979 32.1092L93.9583 29.505C93.2292 28.6457 92.7083 27.604 92.4219 26.5103L91.6146 23.1769C91.1719 21.328 90 19.7134 88.3854 18.7238L85.4688 16.9269C84.5052 16.328 83.6979 15.5207 83.099 14.5571L81.3021 11.6405C80.3125 10.0259 78.6979 8.854 76.849 8.4113L73.5156 7.604C72.4219 7.34359 71.3802 6.82275 70.5208 6.06755L67.9167 3.82796C66.4583 2.57796 64.5833 1.979 62.6823 2.13525L59.2708 2.39567C58.151 2.4738 57.0052 2.31755 55.9635 1.87484L52.7865 0.572754C51.0156 -0.156413 49.0365 -0.156413 47.2917 0.572754L44.1146 1.87484C43.0729 2.31755 41.9271 2.49984 40.8073 2.39567L37.3958 2.13525C35.4948 1.979 33.6198 2.604 32.1615 3.82796L29.5573 6.06755C28.6979 6.79671 27.6562 7.31755 26.5625 7.604L23.2292 8.4113C21.3802 8.854 19.7656 10.0259 18.776 11.6405L16.9792 14.5571C16.3802 15.5207 15.5729 16.328 14.6094 16.9269L11.6927 18.7238C10.0781 19.7134 8.90625 21.328 8.46354 23.1769L7.65625 26.5103C7.39583 27.604 6.875 28.6457 6.11979 29.505L3.88021 32.1092C2.63021 33.5675 2.03125 35.4425 2.1875 37.3436L2.44792 40.755C2.52604 41.8748 2.36979 43.0207 1.92708 44.0623L0.625 47.2394C-0.104167 49.0102 -0.104167 50.9894 0.625 52.7342L1.92708 55.9113C2.36979 56.953 2.55208 58.0988 2.44792 59.2186L2.1875 62.63C2.03125 64.5311 2.65625 66.4061 3.88021 67.8644L6.11979 70.4686C6.84896 71.328 7.36979 72.3696 7.65625 73.4634L8.46354 76.7967C8.90625 78.6457 10.0781 80.2602 11.6927 81.2498L14.6094 83.0467C15.5729 83.6457 16.3802 84.453 16.9792 85.4165L18.776 88.3332C19.7656 89.9478 21.3802 91.1196 23.2292 91.5623L26.5625 92.3696C27.6562 92.63 28.6979 93.1509 29.5573 93.9061L32.1615 96.1457C33.6198 97.3957 35.4948 97.9946 37.3958 97.8384L40.8073 97.578C41.9271 97.4998 43.0729 97.6561 44.1146 98.0988L47.2917 99.4009C49.0625 100.13 51.0417 100.13 52.7865 99.4009L55.9635 98.0988C57.0052 97.6561 58.151 97.4738 59.2708 97.578L62.6823 97.8384C64.5833 97.9946 66.4583 97.3696 67.9167 96.1457L70.5208 93.9061C71.3802 93.1769 72.4219 92.6561 73.5156 92.3696L76.849 91.5623C78.6979 91.1196 80.3125 89.9478 81.3021 88.3332L83.099 85.4165C83.6979 84.453 84.5052 83.6457 85.4688 83.0467L88.3854 81.2498C90 80.2602 91.1719 78.6457 91.6146 76.7967L92.4219 73.4634C92.6823 72.3696 93.2031 71.328 93.9583 70.4686L96.1979 67.8644C97.4479 66.4061 98.0469 64.5311 97.8906 62.63L97.6302 59.2186C97.5521 58.0988 97.7083 56.953 98.151 55.9113L99.4531 52.7342C100.182 50.9894 100.182 49.0102 99.4531 47.2394ZM49.8698 89.3748C28.0469 89.3748 10.3646 71.6925 10.3646 49.8696C10.3646 28.0467 28.0469 10.3644 49.8698 10.3644C71.6927 10.3644 89.375 28.0467 89.375 49.8696C89.375 71.6925 71.6927 89.3748 49.8698 89.3748Z" fill="black"/>
</g>
<defs>
<clipPath id="clip0_870_673">
<rect width="100" height="100" fill="white"/>
</clipPath>
</defs>
</svg>
