<svg width="60" height="60" viewBox="0 0 60 60" fill="none" xmlns="http://www.w3.org/2000/svg">
<path fill-rule="evenodd" clip-rule="evenodd" d="M8.29297 7.87109V24.9609C10.8906 21.8555 14.0156 20.293 17.6289 20.293C19.4844 20.293 21.1641 20.6445 22.6484 21.3477C24.1523 22.0508 25.2656 22.9492 26.0273 24.043C26.7891 25.1367 27.2969 26.3477 27.5898 27.6758C27.8633 29.0039 28 31.0547 28 33.8477V52.1094H19.9141V35.6641C19.9141 32.4023 19.7773 30.332 19.4648 29.4531C19.1523 28.5742 18.625 27.8711 17.8437 27.3633C17.0625 26.8359 16.1055 26.582 14.9336 26.582C13.6055 26.582 12.3945 26.9141 11.3398 27.5781C10.2656 28.2422 9.50391 29.2578 9.01562 30.5859C8.52734 31.9336 8.27344 33.9063 8.29297 36.5234L8.27344 52.1289H0.207031V7.87109H8.29297Z" fill="#00C2FF"/>
<path fill-rule="evenodd" clip-rule="evenodd" d="M40.0859 7.87109V24.9609C42.6836 21.8555 45.8086 20.293 49.4219 20.293C51.2773 20.293 52.957 20.6445 54.4414 21.3477C55.9453 22.0508 57.0586 22.9492 57.8203 24.043C58.582 25.1367 59.0898 26.3477 59.3828 27.6758C59.6562 29.0039 59.793 31.0547 59.793 33.8477V52.1094H51.707V35.6641C51.707 32.4023 51.5703 30.332 51.2578 29.4531C50.9453 28.5742 50.418 27.8711 49.6367 27.3633C48.8555 26.8359 47.8984 26.582 46.7266 26.582C45.3984 26.582 44.1875 26.9141 43.1328 27.5781C42.0586 28.2422 41.2969 29.2578 40.8086 30.5859C40.3203 31.9336 40.0664 33.9063 40.0859 36.5234L40.0664 52.1289H32V7.87109H40.0859Z" fill="#00C2FF"/>
</svg>
