<svg width="60" height="60" viewBox="0 0 60 60" fill="none" xmlns="http://www.w3.org/2000/svg">
<path d="M8.96485 12.4609C12.751 12.4609 15.8203 9.67146 15.8203 6.23047C15.8203 2.78948 12.751 0 8.96485 0C5.17867 0 2.10938 2.78948 2.10938 6.23047C2.10938 9.67146 5.17867 12.4609 8.96485 12.4609Z" fill="#00C2FF"/>
<path d="M14.8047 17.2852H2.69531V53.3203H14.8047V17.2852Z" fill="#00C2FF"/>
<path d="M44.6289 16.5039C34.9023 16.5039 33.2617 22.5977 33.2617 22.5977V17.2852H21.1523V53.3203H33.2617V33.6133C33.2617 33.6133 33.2617 25.8203 39.7656 25.8203C46.2695 25.8203 45.7813 33.0664 45.7813 33.0664V34.7461V53.3203H57.8906V39.9023V34.7266C57.8906 33.8086 57.8906 32.7148 57.8906 31.4844C57.9102 24.9219 54.3555 16.5039 44.6289 16.5039Z" fill="#00C2FF"/>
</svg>
