<svg width="60" height="60" viewBox="0 0 60 60" fill="none" xmlns="http://www.w3.org/2000/svg">
<path d="M6.92383 19.4645L27.0996 33.0543C27.9785 33.6536 29.0137 33.9436 30.0293 33.9436C31.0449 33.9436 32.0605 33.6536 32.9395 33.0737L53.0762 19.6771C54.1113 19.0005 54.7168 18.0533 54.9512 17.0481V16.0235C54.9512 13.5298 52.9004 11.5 50.3809 11.5H9.63867C7.11914 11.5 5.06836 13.5298 5.06836 16.0235V16.7001C5.26367 17.744 5.84961 18.7299 6.92383 19.4645Z" fill="#00C2FF"/>
<path d="M35.1074 36.2632C33.6035 37.2685 31.8457 37.7904 30.0098 37.7904C28.1738 37.7904 26.3965 37.2491 24.873 36.2246L5.04883 22.8667V43.9764C5.04883 46.4701 7.09961 48.4999 9.61914 48.4999H50.3613C52.8809 48.4999 54.9316 46.4701 54.9316 43.9764V23.06L35.1074 36.2632Z" fill="#00C2FF"/>
</svg>
