<svg width="54" height="54" viewBox="0 0 54 54" fill="none" xmlns="http://www.w3.org/2000/svg">
<g clip-path="url(#clip0_508_1011)">
<path d="M49.7812 0H4.21875C1.8888 0 0 1.8888 0 4.21875V49.7812C0 52.1112 1.8888 54 4.21875 54H49.7812C52.1112 54 54 52.1112 54 49.7812V4.21875C54 1.8888 52.1112 0 49.7812 0Z" fill="#3178C6"/>
<path fill-rule="evenodd" clip-rule="evenodd" d="M31.7499 42.2877V48.1138C32.6974 48.5994 33.8181 48.9634 35.1118 49.2062C36.4055 49.449 37.769 49.5703 39.2025 49.5703C40.5994 49.5703 41.9266 49.4368 43.1838 49.1697C44.4409 48.9027 45.5435 48.4627 46.4908 47.8499C47.4384 47.2369 48.1885 46.4358 48.7413 45.4465C49.294 44.4574 49.5703 43.2346 49.5703 41.7781C49.5703 40.7221 49.4123 39.7965 49.0965 39.0015C48.7808 38.2065 48.3251 37.4994 47.7299 36.8805C47.1348 36.2614 46.421 35.7062 45.5891 35.2145C44.7569 34.7231 43.8185 34.2588 42.7737 33.8219C42.0084 33.5062 41.3222 33.1999 40.7147 32.9025C40.1074 32.605 39.5911 32.3017 39.166 31.992C38.7408 31.6826 38.4128 31.3548 38.182 31.0089C37.9512 30.6629 37.8359 30.2716 37.8359 29.8346C37.8359 29.434 37.939 29.0731 38.1455 28.7514C38.352 28.4297 38.6437 28.1536 39.0203 27.9231C39.3968 27.6923 39.8583 27.5134 40.4051 27.3858C40.9516 27.2584 41.5591 27.1947 42.2272 27.1947C42.7132 27.1947 43.2264 27.2312 43.7668 27.304C44.3074 27.3767 44.851 27.489 45.3978 27.6408C45.9443 27.7925 46.4756 27.9836 46.992 28.2144C47.5082 28.4449 47.9851 28.712 48.4224 29.0153V23.5716C47.5356 23.2318 46.5668 22.98 45.5161 22.8161C44.4654 22.6522 43.2597 22.5703 41.8991 22.5703C40.5143 22.5703 39.2025 22.719 37.9635 23.0164C36.7244 23.3137 35.6341 23.7779 34.6927 24.4091C33.7513 25.0404 33.0073 25.8445 32.4605 26.8215C31.914 27.7986 31.6406 28.9668 31.6406 30.3263C31.6406 32.0619 32.1416 33.5426 33.144 34.7686C34.1461 35.9944 35.6674 37.0322 37.7082 37.8818C38.51 38.2096 39.2572 38.5311 39.9495 38.8469C40.642 39.1624 41.2402 39.49 41.7443 39.8299C42.2485 40.1697 42.6463 40.5399 42.9378 40.9404C43.2293 41.341 43.3751 41.7962 43.3751 42.306C43.3751 42.6821 43.284 43.0312 43.1017 43.3529C42.9197 43.6744 42.6431 43.9537 42.2727 44.1903C41.9023 44.427 41.4406 44.612 40.8879 44.7455C40.3353 44.8791 39.6883 44.9459 38.9473 44.9459C37.684 44.9459 36.4329 44.7244 35.1939 44.2813C33.9546 43.8383 32.8067 43.1738 31.7499 42.2877ZM22.0392 27.7893H29.5312V22.9922H8.64844V27.7893H16.104V49.1484H22.0392V27.7893Z" fill="white"/>
</g>
<defs>
<clipPath id="clip0_508_1011">
<rect width="54" height="54" fill="white"/>
</clipPath>
</defs>
</svg>
