<svg width="142" height="22" viewBox="0 0 142 22" fill="none" xmlns="http://www.w3.org/2000/svg">
<path d="M12.0587 1.26766L9.16127 10.0562L12.3352 20.7323H7.10539L5.06154 12.3886V20.7323H0V1.26766H5.06154V8.82991L7.30978 1.26766H12.0587Z" fill="white"/>
<path d="M24.3339 12.6651C24.3339 14.6208 24.2858 16.0074 24.1896 16.825C24.1014 17.6345 23.8129 18.3759 23.324 19.0492C22.8431 19.7224 22.1898 20.2394 21.3643 20.6001C20.5387 20.9608 19.5769 21.1411 18.4788 21.1411C17.4369 21.1411 16.4991 20.9728 15.6655 20.6362C14.84 20.2915 14.1747 19.7785 13.6698 19.0973C13.1648 18.416 12.8642 17.6746 12.7681 16.8731C12.6719 16.0716 12.6238 14.6689 12.6238 12.6651V9.33486C12.6238 7.37918 12.6679 5.99657 12.756 5.18704C12.8522 4.3695 13.1408 3.6241 13.6217 2.95083C14.1106 2.27756 14.7678 1.76059 15.5934 1.39991C16.4189 1.03923 17.3808 0.858887 18.4788 0.858887C19.5208 0.858887 20.4546 1.03121 21.2801 1.37586C22.1137 1.7125 22.7829 2.22145 23.2879 2.90274C23.7928 3.58402 24.0934 4.32542 24.1896 5.12693C24.2858 5.92844 24.3339 7.33109 24.3339 9.33486V12.6651ZM19.2723 6.26908C19.2723 5.36338 19.2202 4.78629 19.116 4.53782C19.0198 4.28134 18.8155 4.1531 18.5029 4.1531C18.2384 4.1531 18.034 4.25729 17.8897 4.46568C17.7535 4.66606 17.6853 5.2672 17.6853 6.26908V15.3582C17.6853 16.4883 17.7294 17.1857 17.8176 17.4502C17.9138 17.7147 18.1302 17.8469 18.4668 17.8469C18.8115 17.8469 19.0319 17.6946 19.1281 17.39C19.2242 17.0855 19.2723 16.3601 19.2723 15.2139V6.26908Z" fill="white"/>
<path d="M37.5347 1.26766V20.7323H33.0984L30.4654 11.8837V20.7323H26.2334V1.26766H30.4654L33.3028 10.0322V1.26766H37.5347Z" fill="white"/>
<path d="M50.3028 7.15876H45.6019V5.71604C45.6019 5.04277 45.5418 4.61396 45.4216 4.42962C45.3014 4.24527 45.101 4.1531 44.8205 4.1531C44.5159 4.1531 44.2835 4.27733 44.1232 4.5258C43.9709 4.77427 43.8947 5.15098 43.8947 5.65593C43.8947 6.30515 43.9829 6.79407 44.1592 7.12269C44.3275 7.45131 44.8044 7.84806 45.5899 8.31294C47.8422 9.65146 49.2608 10.7495 49.8459 11.6071C50.431 12.4648 50.7236 13.8474 50.7236 15.755C50.7236 17.1416 50.5593 18.1635 50.2307 18.8207C49.9101 19.478 49.2849 20.031 48.3551 20.4799C47.4254 20.9207 46.3433 21.1411 45.109 21.1411C43.7545 21.1411 42.5963 20.8846 41.6345 20.3717C40.6807 19.8587 40.0555 19.2055 39.7589 18.412C39.4624 17.6185 39.3141 16.4924 39.3141 15.0336V13.7592H44.015V16.1277C44.015 16.857 44.0791 17.3259 44.2073 17.5343C44.3436 17.7427 44.58 17.8469 44.9167 17.8469C45.2533 17.8469 45.5018 17.7147 45.6621 17.4502C45.8304 17.1857 45.9145 16.7929 45.9145 16.2719C45.9145 15.1258 45.7582 14.3764 45.4457 14.0237C45.125 13.671 44.3356 13.0819 43.0772 12.2564C41.8188 11.4228 40.9852 10.8177 40.5765 10.4409C40.1677 10.0642 39.8271 9.54325 39.5546 8.878C39.2901 8.21275 39.1578 7.36315 39.1578 6.3292C39.1578 4.83839 39.3462 3.74833 39.7229 3.05903C40.1076 2.36973 40.7248 1.83272 41.5744 1.448C42.424 1.05526 43.4499 0.858887 44.6522 0.858887C45.9666 0.858887 47.0847 1.07129 48.0065 1.49609C48.9362 1.92089 49.5494 2.4579 49.8459 3.10712C50.1505 3.74833 50.3028 4.84239 50.3028 6.38931V7.15876Z" fill="white"/>
<path d="M62.5178 1.26766V5.163H59.5122V20.7323H54.4506V5.163H51.457V1.26766H62.5178Z" fill="white"/>
<path d="M71.4266 1.26766L74.3241 20.7323H69.1423L68.8898 17.2337H67.0744L66.7738 20.7323H61.532L64.1048 1.26766H71.4266ZM68.7456 13.7832C68.4891 11.5791 68.2326 8.85796 67.9761 5.61986C67.4632 9.33887 67.1425 12.06 67.0143 13.7832H68.7456Z" fill="white"/>
<path d="M86.491 1.26766V20.7323H82.0546L79.4217 11.8837V20.7323H75.1897V1.26766H79.4217L82.259 10.0322V1.26766H86.491Z" fill="white"/>
<path d="M98.7301 1.26766V5.163H95.7244V20.7323H90.6629V5.163H87.6692V1.26766H98.7301Z" fill="white"/>
<path d="M104.946 1.26766V20.7323H99.8843V1.26766H104.946Z" fill="white"/>
<path d="M118.279 1.26766V20.7323H113.843L111.21 11.8837V20.7323H106.978V1.26766H111.21L114.047 10.0322V1.26766H118.279Z" fill="white"/>
<path d="M124.94 1.2677V16.837H128.018V20.7324H119.878V1.2677H124.94Z" fill="#00C2FF"/>
<path d="M138.622 1.2677L141.519 20.7324H136.337L136.085 17.2338H134.27L133.969 20.7324H128.727L131.3 1.2677H138.622ZM135.941 13.7833C135.684 11.5791 135.428 8.85801 135.171 5.6199C134.658 9.33891 134.338 12.06 134.209 13.7833H135.941Z" fill="#00C2FF"/>
</svg>
