<svg width="803" height="110" viewBox="0 0 803 110" fill="none" xmlns="http://www.w3.org/2000/svg">
<path d="M124.7 1.54552V107H96.0708V27.9092H95.4529L72.3848 41.7089V17.4049L98.3365 1.54552H124.7Z" fill="white"/>
<path d="M192.283 109.884C182.705 109.849 174.432 107.635 167.464 103.241C160.495 98.8472 155.123 92.5138 151.347 84.2408C147.571 75.9679 145.7 66.0472 145.734 54.4788C145.769 42.876 147.657 33.024 151.398 24.9227C155.174 16.8213 160.53 10.6595 167.464 6.43721C174.432 2.21491 182.705 0.10376 192.283 0.10376C201.86 0.10376 210.133 2.23207 217.102 6.4887C224.07 10.711 229.442 16.8728 233.218 24.9741C236.994 33.0755 238.865 42.9103 238.831 54.4788C238.831 66.1158 236.943 76.0709 233.167 84.3438C229.391 92.6168 224.019 98.9502 217.05 103.344C210.116 107.704 201.86 109.884 192.283 109.884ZM192.283 86.6094C197.226 86.6094 201.277 84.0349 204.435 78.8857C207.627 73.7022 209.206 65.5666 209.172 54.4788C209.172 47.2356 208.451 41.3141 207.009 36.7142C205.567 32.1143 203.576 28.7159 201.036 26.5189C198.496 24.2876 195.578 23.1719 192.283 23.1719C187.339 23.1719 183.306 25.6779 180.182 30.6897C177.058 35.7015 175.462 43.6312 175.393 54.4788C175.359 61.8592 176.063 67.9352 177.505 72.7067C178.946 77.444 180.937 80.9454 183.478 83.211C186.052 85.4766 188.987 86.6094 192.283 86.6094Z" fill="white"/>
<path d="M47.9719 63.0796L0.415039 82.1279V66.02L30.7133 55.537L30.202 56.3041V54.5143L30.7133 55.2813L0.415039 44.7984V28.6904L47.9719 47.7387V63.0796Z" fill="white"/>
<path d="M256.853 4.63632H267.861L274.963 19.409H275.247L282.35 4.63632H293.358L280.006 29.5653V41H270.205V29.5653L256.853 4.63632Z" fill="white"/>
<path d="M296.576 41V4.63632H322.784V12.5909H306.449V18.8409H321.434V26.7954H306.449V33.0454H322.713V41H296.576Z" fill="white"/>
<path d="M337.126 41H326.473L338.475 4.63632H351.97L363.973 41H353.319L345.365 14.6505H345.081L337.126 41ZM335.137 26.6534H355.166V34.0397H335.137V26.6534Z" fill="white"/>
<path d="M367.475 41V4.63632H383.171C385.87 4.63632 388.231 5.12756 390.255 6.11004C392.28 7.09252 393.854 8.50706 394.978 10.3537C396.103 12.2002 396.665 14.4138 396.665 16.9943C396.665 19.5984 396.085 21.7942 394.925 23.5816C393.777 25.369 392.161 26.7185 390.078 27.6299C388.006 28.5414 385.586 28.9971 382.816 28.9971H373.441V21.3267H380.827C381.987 21.3267 382.976 21.1846 383.792 20.9005C384.621 20.6046 385.254 20.137 385.692 19.4978C386.142 18.8586 386.367 18.0241 386.367 16.9943C386.367 15.9526 386.142 15.1063 385.692 14.4552C385.254 13.7923 384.621 13.307 383.792 12.9992C382.976 12.6796 381.987 12.5198 380.827 12.5198H377.347V41H367.475ZM388.782 24.3096L397.873 41H387.148L378.27 24.3096H388.782Z" fill="white"/>
<path d="M420.476 16C420.381 14.8162 419.937 13.8929 419.144 13.2301C418.363 12.5672 417.173 12.2358 415.575 12.2358C414.557 12.2358 413.722 12.36 413.071 12.6086C412.432 12.8454 411.959 13.1709 411.651 13.5852C411.343 13.9995 411.183 14.473 411.172 15.0056C411.148 15.4436 411.225 15.8402 411.402 16.1953C411.592 16.5385 411.888 16.8522 412.29 17.1363C412.693 17.4086 413.208 17.6572 413.835 17.8821C414.462 18.107 415.208 18.3082 416.072 18.4858L419.055 19.125C421.067 19.5511 422.79 20.1134 424.222 20.8117C425.654 21.5101 426.826 22.3328 427.738 23.2798C428.649 24.2149 429.318 25.2684 429.744 26.4403C430.182 27.6122 430.407 28.8906 430.419 30.2755C430.407 32.6666 429.809 34.6908 428.625 36.348C427.442 38.0052 425.749 39.2658 423.547 40.1299C421.357 40.994 418.724 41.4261 415.646 41.4261C412.486 41.4261 409.727 40.9585 407.372 40.0234C405.028 39.0883 403.205 37.6501 401.903 35.7088C400.613 33.7556 399.962 31.258 399.95 28.2159H409.325C409.384 29.3286 409.662 30.2637 410.16 31.0213C410.657 31.7788 411.355 32.3529 412.255 32.7436C413.166 33.1342 414.249 33.3295 415.504 33.3295C416.557 33.3295 417.439 33.1993 418.15 32.9389C418.86 32.6785 419.398 32.3174 419.765 31.8558C420.132 31.3941 420.322 30.8674 420.334 30.2755C420.322 29.7192 420.138 29.2339 419.783 28.8196C419.44 28.3934 418.872 28.0146 418.079 27.6832C417.285 27.3399 416.214 27.0203 414.865 26.7244L411.243 25.9431C408.023 25.2447 405.484 24.0788 403.625 22.4453C401.779 20.7999 400.861 18.5568 400.873 15.7159C400.861 13.4076 401.477 11.3894 402.72 9.66118C403.975 7.92112 405.709 6.56577 407.922 5.59513C410.148 4.62448 412.699 4.13916 415.575 4.13916C418.511 4.13916 421.05 4.6304 423.192 5.61288C425.335 6.59536 426.986 7.98031 428.146 9.76771C429.318 11.5433 429.91 13.6207 429.922 16H420.476Z" fill="white"/>
<path d="M307.848 81.9091C307.848 87.4957 306.761 92.2084 304.589 96.0472C302.416 99.8697 299.484 102.769 295.792 104.746C292.101 106.706 287.984 107.686 283.443 107.686C278.869 107.686 274.736 106.698 271.044 104.721C267.369 102.728 264.445 99.8206 262.272 95.9982C260.116 92.1594 259.038 87.463 259.038 81.9091C259.038 76.3224 260.116 71.6179 262.272 67.7954C264.445 63.9567 267.369 61.0572 271.044 59.0969C274.736 57.1204 278.869 56.1321 283.443 56.1321C287.984 56.1321 292.101 57.1204 295.792 59.0969C299.484 61.0572 302.416 63.9567 304.589 67.7954C306.761 71.6179 307.848 76.3224 307.848 81.9091ZM293.832 81.9091C293.832 78.9034 293.432 76.3714 292.631 74.3132C291.847 72.2386 290.679 70.6704 289.128 69.6086C287.592 68.5305 285.697 67.9915 283.443 67.9915C281.189 67.9915 279.286 68.5305 277.734 69.6086C276.198 70.6704 275.03 72.2386 274.23 74.3132C273.446 76.3714 273.054 78.9034 273.054 81.9091C273.054 84.9148 273.446 87.4549 274.23 89.5294C275.03 91.5877 276.198 93.1559 277.734 94.234C279.286 95.2958 281.189 95.8267 283.443 95.8267C285.697 95.8267 287.592 95.2958 289.128 94.234C290.679 93.1559 291.847 91.5877 292.631 89.5294C293.432 87.4549 293.832 84.9148 293.832 81.9091Z" fill="#00C2FF"/>
<path d="M314.151 107V56.8182H349.435V67.7954H327.775V76.4204H347.279V87.3977H327.775V107H314.151Z" fill="#00C2FF"/>
<path d="M380.934 107L366.134 56.8182H381.326L388.186 87.6917H388.578L396.713 56.8182H408.671L416.806 87.7898H417.198L424.059 56.8182H439.25L424.451 107H411.415L402.888 78.9687H402.496L393.969 107H380.934Z" fill="#00C2FF"/>
<path d="M443.661 107V56.8182H479.827V67.7954H457.284V76.4204H477.965V87.3977H457.284V96.0227H479.729V107H443.661Z" fill="#00C2FF"/>
<path d="M486.584 107V56.8182H508.342C512.165 56.8182 515.375 57.3327 517.972 58.3618C520.585 59.391 522.554 60.8448 523.877 62.7233C525.217 64.6019 525.886 66.8153 525.886 69.3636C525.886 71.2095 525.478 72.892 524.661 74.4112C523.861 75.9304 522.734 77.2045 521.28 78.2336C519.826 79.2464 518.127 79.9488 516.183 80.3409V80.8309C518.339 80.9126 520.3 81.4599 522.064 82.4726C523.828 83.4691 525.233 84.8494 526.278 86.6136C527.324 88.3615 527.846 90.4197 527.846 92.7883C527.846 95.5326 527.128 97.9748 525.69 100.115C524.269 102.255 522.243 103.937 519.614 105.162C516.984 106.387 513.847 107 510.204 107H486.584ZM500.207 96.1207H506.578C508.865 96.1207 510.58 95.696 511.724 94.8466C512.867 93.9808 513.439 92.7067 513.439 91.0241C513.439 89.848 513.169 88.8515 512.63 88.0348C512.091 87.218 511.323 86.5973 510.327 86.1726C509.347 85.7478 508.163 85.5355 506.774 85.5355H500.207V96.1207ZM500.207 77.1065H505.794C506.986 77.1065 508.04 76.9187 508.955 76.5429C509.87 76.1672 510.58 75.6282 511.087 74.9258C511.609 74.207 511.871 73.3331 511.871 72.304C511.871 70.7521 511.315 69.5678 510.204 68.751C509.094 67.9179 507.689 67.5014 505.99 67.5014H500.207V77.1065Z" fill="#00C2FF"/>
<path d="M565.728 107H546.42V56.8182H565.532C570.694 56.8182 575.153 57.8228 578.91 59.832C582.684 61.8249 585.592 64.6999 587.633 68.457C589.692 72.1978 590.721 76.6818 590.721 81.9091C590.721 87.1363 589.7 91.6285 587.658 95.3856C585.616 99.1264 582.725 102.001 578.984 104.011C575.243 106.004 570.824 107 565.728 107ZM560.043 95.4346H565.238C567.721 95.4346 569.836 95.0344 571.584 94.234C573.348 93.4336 574.688 92.0532 575.603 90.093C576.534 88.1328 576.999 85.4048 576.999 81.9091C576.999 78.4133 576.525 75.6853 575.578 73.7251C574.647 71.7649 573.275 70.3846 571.462 69.5841C569.665 68.7837 567.459 68.3835 564.846 68.3835H560.043V95.4346Z" fill="#00C2FF"/>
<path d="M597.024 107V56.8182H633.19V67.7954H610.648V76.4204H631.328V87.3977H610.648V96.0227H633.092V107H597.024Z" fill="#00C2FF"/>
<path d="M666.998 72.5C666.867 70.8665 666.255 69.5923 665.16 68.6775C664.082 67.7628 662.441 67.3054 660.235 67.3054C658.831 67.3054 657.679 67.4769 656.78 67.8199C655.898 68.1466 655.245 68.5959 654.82 69.1676C654.396 69.7393 654.175 70.3927 654.159 71.1278C654.126 71.7322 654.232 72.2795 654.477 72.7695C654.739 73.2432 655.147 73.6761 655.702 74.0682C656.258 74.4439 656.968 74.7869 657.834 75.0973C658.7 75.4076 659.729 75.6853 660.921 75.9304L665.038 76.8125C667.815 77.4005 670.192 78.1765 672.168 79.1402C674.145 80.104 675.762 81.2393 677.02 82.5461C678.278 83.8366 679.201 85.2905 679.789 86.9076C680.393 88.5248 680.703 90.289 680.72 92.2003C680.703 95.5 679.878 98.2933 678.245 100.58C676.611 102.867 674.275 104.607 671.237 105.799C668.215 106.992 664.581 107.588 660.333 107.588C655.972 107.588 652.166 106.943 648.915 105.652C645.681 104.362 643.165 102.377 641.368 99.6981C639.588 97.0028 638.689 93.5561 638.673 89.3579H651.61C651.692 90.8934 652.076 92.1839 652.762 93.2294C653.448 94.2748 654.412 95.0671 655.653 95.6062C656.911 96.1452 658.406 96.4147 660.137 96.4147C661.591 96.4147 662.808 96.2351 663.788 95.8757C664.768 95.5163 665.512 95.0181 666.018 94.381C666.524 93.7439 666.786 93.017 666.802 92.2003C666.786 91.4325 666.533 90.7628 666.043 90.191C665.569 89.603 664.785 89.0802 663.69 88.6228C662.596 88.1491 661.117 87.7081 659.255 87.2997L654.257 86.2216C649.813 85.2578 646.31 83.6488 643.745 81.3945C641.197 79.1239 639.931 76.0284 639.947 72.1079C639.931 68.9226 640.78 66.1374 642.495 63.7525C644.227 61.3512 646.62 59.4808 649.675 58.1413C652.746 56.8018 656.266 56.1321 660.235 56.1321C664.286 56.1321 667.79 56.81 670.747 58.1658C673.704 59.5216 675.982 61.4329 677.583 63.8995C679.201 66.3498 680.017 69.2166 680.034 72.5H666.998Z" fill="#00C2FF"/>
<path d="M699.526 56.8182V107H685.902V56.8182H699.526Z" fill="#00C2FF"/>
<path d="M738.571 73.3821C738.359 72.5163 738.024 71.7567 737.566 71.1033C737.109 70.4336 736.537 69.87 735.851 69.4126C735.181 68.9389 734.397 68.5877 733.499 68.359C732.617 68.114 731.645 67.9915 730.583 67.9915C728.296 67.9915 726.344 68.5387 724.727 69.6331C723.126 70.7276 721.901 72.304 721.051 74.3622C720.218 76.4204 719.802 78.9034 719.802 81.8111C719.802 84.7514 720.202 87.267 721.002 89.3579C721.803 91.4488 722.995 93.0497 724.58 94.1605C726.164 95.2713 728.133 95.8267 730.485 95.8267C732.56 95.8267 734.283 95.5245 735.655 94.9201C737.044 94.3157 738.081 93.4581 738.767 92.3473C739.453 91.2365 739.796 89.9297 739.796 88.4268L742.148 88.6719H730.681V78.9687H752.93V85.9275C752.93 90.5014 751.958 94.4137 750.014 97.6644C748.086 100.899 745.424 103.382 742.026 105.113C738.644 106.828 734.765 107.686 730.387 107.686C725.503 107.686 721.215 106.649 717.523 104.574C713.831 102.5 710.948 99.5429 708.873 95.7042C706.815 91.8654 705.786 87.2997 705.786 82.0071C705.786 77.8579 706.415 74.1825 707.673 70.9808C708.947 67.7791 710.711 65.0756 712.965 62.8704C715.22 60.6488 717.825 58.9744 720.782 57.8473C723.739 56.7038 726.908 56.1321 730.289 56.1321C733.262 56.1321 736.023 56.5568 738.571 57.4062C741.136 58.2393 743.398 59.4318 745.358 60.9836C747.335 62.5192 748.927 64.3405 750.136 66.4478C751.345 68.555 752.08 70.8665 752.342 73.3821H738.571Z" fill="#00C2FF"/>
<path d="M802.701 56.8182V107H791.332L773.2 80.6349H772.906V107H759.282V56.8182H770.847L788.685 83.0852H789.077V56.8182H802.701Z" fill="#00C2FF"/>
</svg>
