<svg width="273" height="240" viewBox="0 0 273 240" fill="none" xmlns="http://www.w3.org/2000/svg">
<g opacity="0.5">
<mask id="mask0_559_33" style="mask-type:alpha" maskUnits="userSpaceOnUse" x="0" y="0" width="251" height="240">
<g clip-path="url(#clip0_559_33)">
<path d="M103.2 -37.5L131 -9.7L92.2004 29.1L64.4004 1.3" stroke="var(--secondary-color)" stroke-width="3" stroke-miterlimit="10" stroke-linecap="square"/>
<path d="M126.5 -5.1001L185.4 53.7999C185.4 53.7999 187.6 56.1999 192.7 57.6999C197.8 59.1999 205.8 62.3999 216.6 73.2999C225 81.6999 225 81.6999 225 81.6999" stroke="var(--secondary-color)" stroke-width="3" stroke-miterlimit="10" stroke-linecap="square" stroke-linejoin="round"/>
<path d="M224.9 81.5L246.1 102.7C248.8 105.4 248.8 109.9 246.1 112.6C243.4 115.3 238.9 115.3 236.2 112.6L215 91.4" stroke="var(--secondary-color)" stroke-width="3" stroke-miterlimit="10" stroke-linecap="square" stroke-linejoin="round"/>
<path d="M236.2 112.6L243.6 120C246.3 122.7 246.3 127.2 243.6 129.9C240.9 132.6 236.4 132.6 233.7 129.9L205 101.2" stroke="var(--secondary-color)" stroke-width="3" stroke-miterlimit="10" stroke-linecap="square" stroke-linejoin="round"/>
<path d="M233.8 129.9L238.6 134.7C241.3 137.4 241.3 141.9 238.6 144.6C235.9 147.3 231.4 147.3 228.7 144.6L195.4 111.3" stroke="var(--secondary-color)" stroke-width="3" stroke-miterlimit="10" stroke-linecap="square" stroke-linejoin="round"/>
<path d="M221.5 137.5C224.2 140.2 224.2 144.7 221.5 147.4C218.8 150.1 214.3 150.1 211.6 147.4L177.9 113.7C177.9 113.7 187.1 134.3 169.6 143.8L157.9 106.8C157.9 106.8 156.9 103.8 157.2 101.7C157.5 99.6 158 85.3 158 85.3L97 24.3" stroke="var(--secondary-color)" stroke-width="3" stroke-miterlimit="10" stroke-linecap="square" stroke-linejoin="bevel"/>
<path d="M150.2 18.5C150.2 18.5 140.2 21.5 136.4 25.3C132.6 29.1 132.9 33.6 129.3 37.2C125.6 40.9 116.7 43.8 116.7 43.8" stroke="var(--secondary-color)" stroke-width="3" stroke-miterlimit="10" stroke-linejoin="round"/>
<path d="M140.2 8.6001C140.2 8.6001 130.2 11.6001 126.4 15.4001C122.6 19.2001 122.9 23.7001 119.3 27.3001C115.6 31.0001 106.7 33.9001 106.7 33.9001" stroke="var(--secondary-color)" stroke-width="3" stroke-miterlimit="10" stroke-linejoin="round"/>
<path d="M-26.5 92.1999L1.3 120L40.1 81.1999L-9.2 31.8999" stroke="var(--secondary-color)" stroke-width="3" stroke-miterlimit="10" stroke-linecap="square"/>
<path d="M5.90039 115.5L64.8004 174.4C64.8004 174.4 67.2004 176.6 68.7004 181.7C70.2004 186.8 73.4004 194.8 84.3004 205.6C92.7004 214 92.7004 214 92.7004 214" stroke="var(--secondary-color)" stroke-width="3" stroke-miterlimit="10" stroke-linecap="square" stroke-linejoin="round"/>
<path d="M92.5 213.9L113.7 235.1C116.4 237.8 120.9 237.8 123.6 235.1C126.3 232.4 126.3 227.9 123.6 225.2L102.4 204" stroke="var(--secondary-color)" stroke-width="3" stroke-miterlimit="10" stroke-linecap="square" stroke-linejoin="round"/>
<path d="M123.6 225.2L131 232.6C133.7 235.3 138.2 235.3 140.9 232.6C143.6 229.9 143.6 225.4 140.9 222.7L112.2 194" stroke="var(--secondary-color)" stroke-width="3" stroke-miterlimit="10" stroke-linecap="square" stroke-linejoin="round"/>
<path d="M140.9 222.8L145.7 227.6C148.4 230.3 152.9 230.3 155.6 227.6C158.3 224.9 158.3 220.4 155.6 217.7L122.3 184.4" stroke="var(--secondary-color)" stroke-width="3" stroke-miterlimit="10" stroke-linecap="square" stroke-linejoin="round"/>
<path d="M148.5 210.5C151.2 213.2 155.7 213.2 158.4 210.5C161.1 207.8 161.1 203.3 158.4 200.6L124.7 166.9C124.7 166.9 145.3 176.1 154.8 158.6L117.8 146.9C117.8 146.9 114.8 145.9 112.7 146.2C110.6 146.5 96.2998 147 96.2998 147L35.2998 86" stroke="var(--secondary-color)" stroke-width="3" stroke-miterlimit="10" stroke-linecap="square" stroke-linejoin="bevel"/>
<path d="M29.5 139.2C29.5 139.2 32.5 129.2 36.3 125.4C40.1 121.6 44.6 121.9 48.2 118.3C51.9 114.6 54.8 105.7 54.8 105.7" stroke="var(--secondary-color)" stroke-width="3" stroke-miterlimit="10" stroke-linejoin="round"/>
<path d="M19.5996 129.2C19.5996 129.2 22.5996 119.2 26.3996 115.4C30.1996 111.6 34.6996 111.9 38.2996 108.3C41.9996 104.6 44.8996 95.7 44.8996 95.7" stroke="var(--secondary-color)" stroke-width="3" stroke-miterlimit="10" stroke-linejoin="round"/>
<path d="M93.4 158.6C91.3 157 84.2 152.2 78.4 158C71.5 164.9 77.8 179.7 93.7 182.6" stroke="var(--secondary-color)" stroke-width="3" stroke-miterlimit="10"/>
<path d="M93.7998 185.5C95.4567 185.5 96.7998 184.157 96.7998 182.5C96.7998 180.843 95.4567 179.5 93.7998 179.5C92.143 179.5 90.7998 180.843 90.7998 182.5C90.7998 184.157 92.143 185.5 93.7998 185.5Z" fill="var(--secondary-color)"/>
<path d="M107.9 181.1C110.4 180 117.9 176.1 115.6 168.3C112.9 158.9 96.9996 157.2 86.5996 169.7" stroke="var(--secondary-color)" stroke-width="3" stroke-miterlimit="10"/>
<path d="M86.7002 172.8C88.357 172.8 89.7002 171.457 89.7002 169.8C89.7002 168.143 88.357 166.8 86.7002 166.8C85.0433 166.8 83.7002 168.143 83.7002 169.8C83.7002 171.457 85.0433 172.8 86.7002 172.8Z" fill="var(--secondary-color)"/>
<path d="M81.4999 182.4C81.1999 185.3 81.1999 193.4 88.8999 195.2C98.3999 197.5 107.7 184.4 101.9 169.3" stroke="var(--secondary-color)" stroke-width="3" stroke-miterlimit="10"/>
<path d="M101.7 172.3C103.357 172.3 104.7 170.957 104.7 169.3C104.7 167.643 103.357 166.3 101.7 166.3C100.043 166.3 98.7002 167.643 98.7002 169.3C98.7002 170.957 100.043 172.3 101.7 172.3Z" fill="var(--secondary-color)"/>
<path d="M177.4 105.5L166.6 65.5L206.6 76.3L195.5 87.4L186.1 84.9L188.6 94.3L177.4 105.5Z" stroke="var(--secondary-color)" stroke-width="3" stroke-miterlimit="10"/>
<path d="M200.9 82.0001L177 75.6001L183.4 99.5001" stroke="var(--secondary-color)" stroke-width="3" stroke-miterlimit="10"/>
</g>
</mask>
<g mask="url(#mask0_559_33)">
<path d="M0 8.99999C0 4.58172 3.58172 1 8 1H255C259.418 1 263 4.58172 263 9V232C263 236.418 259.418 240 255 240H8.00001C3.58173 240 0 236.418 0 232V8.99999Z" fill="var(--secondary-color)"/>
</g>
</g>
<g opacity="0.2">
<path d="M229.486 9.92162C238.94 5.42671 250.298 9.52258 254.833 19.0624L264.511 39.4171C269.047 48.957 265.054 60.3515 255.6 64.8464C246.146 69.3413 234.788 65.2454 230.253 55.7056L220.575 35.3509C216.039 25.811 220.032 14.4165 229.486 9.92162Z" stroke="var(--secondary-color)" stroke-width="3" stroke-miterlimit="10"/>
<path d="M247.049 46.6193C248.406 45.974 250.068 46.5734 250.719 47.943L254.244 55.3576C254.896 56.7272 254.311 58.3946 252.954 59.04C251.597 59.6853 249.935 59.0859 249.284 57.7163L245.736 50.2545C245.085 48.8849 245.691 47.2646 247.049 46.6193Z" stroke="var(--secondary-color)" stroke-width="3" stroke-miterlimit="10"/>
<path d="M260.896 31.8135L226.637 48.1019" stroke="var(--secondary-color)" stroke-width="3" stroke-miterlimit="10"/>
<path d="M255.6 64.8462L252.838 59.0373" stroke="var(--secondary-color)" stroke-width="3" stroke-miterlimit="10"/>
<path d="M247.049 46.6194L243.86 39.9132" stroke="var(--secondary-color)" stroke-width="3" stroke-miterlimit="10"/>
</g>
<defs>
<clipPath id="clip0_559_33">
<rect width="251" height="240" fill="white"/>
</clipPath>
</defs>
</svg>
