<svg width="876" height="114" viewBox="0 0 876 114" fill="none" xmlns="http://www.w3.org/2000/svg">
<path d="M233.033 43V0.818159H244.485V17.2954H259.644V0.818159H271.096V43H259.644V26.5227H244.485V43H233.033Z" fill="#EC5AF7"/>
<path d="M287.491 43H275.133L289.056 0.818159H304.709L318.633 43H306.275L297.047 12.4346H296.718L287.491 43ZM285.184 26.3579H308.417V34.9261H285.184V26.3579Z" fill="#EC5AF7"/>
<path d="M322.695 43V0.818159H340.903C344.033 0.818159 346.773 1.388 349.121 2.52768C351.469 3.66735 353.295 5.30822 354.599 7.45026C355.904 9.59231 356.556 12.16 356.556 15.1534C356.556 18.1742 355.883 20.7213 354.538 22.7947C353.206 24.8681 351.331 26.4335 348.915 27.4907C346.512 28.548 343.704 29.0767 340.491 29.0767H329.616V20.179H338.184C339.53 20.179 340.676 20.0142 341.624 19.6846C342.585 19.3414 343.319 18.799 343.827 18.0575C344.349 17.316 344.61 16.348 344.61 15.1534C344.61 13.9451 344.349 12.9633 343.827 12.2081C343.319 11.4391 342.585 10.8762 341.624 10.5192C340.676 10.1484 339.53 9.96305 338.184 9.96305H334.147V43H322.695ZM347.411 23.6392L357.957 43H345.516L335.218 23.6392H347.411Z" fill="#EC5AF7"/>
<path d="M377.668 43H361.438V0.818159H377.503C381.842 0.818159 385.59 1.66262 388.749 3.35154C391.92 5.02673 394.365 7.4434 396.081 10.6015C397.811 13.746 398.676 17.5151 398.676 21.9091C398.676 26.303 397.818 30.0791 396.102 33.2372C394.385 36.3816 391.955 38.7983 388.81 40.4872C385.666 42.1624 381.952 43 377.668 43ZM372.889 33.2784H377.256C379.343 33.2784 381.121 32.942 382.59 32.2692C384.073 31.5963 385.199 30.4361 385.968 28.7883C386.751 27.1406 387.142 24.8475 387.142 21.9091C387.142 18.9706 386.744 16.6775 385.947 15.0298C385.165 13.3821 384.011 12.2218 382.487 11.549C380.977 10.8762 379.123 10.5397 376.926 10.5397H372.889V33.2784Z" fill="#EC5AF7"/>
<path d="M443.355 16.6363H431.739C431.656 15.6752 431.437 14.8032 431.08 14.0206C430.736 13.2379 430.256 12.5651 429.638 12.0021C429.034 11.4254 428.299 10.986 427.434 10.6839C426.569 10.3681 425.587 10.2102 424.489 10.2102C422.566 10.2102 420.939 10.6771 419.607 11.6108C418.289 12.5445 417.287 13.8833 416.6 15.6271C415.927 17.371 415.591 19.4649 415.591 21.9091C415.591 24.4905 415.934 26.6532 416.621 28.397C417.321 30.1271 418.33 31.4316 419.649 32.3103C420.967 33.1754 422.553 33.6079 424.406 33.6079C425.464 33.6079 426.411 33.4775 427.249 33.2166C428.086 32.942 428.814 32.5506 429.432 32.0426C430.05 31.5345 430.551 30.9235 430.936 30.2095C431.334 29.4817 431.601 28.6648 431.739 27.7585L443.355 27.8409C443.218 29.6259 442.717 31.4453 441.852 33.299C440.987 35.1389 439.758 36.8416 438.165 38.4069C436.586 39.9585 434.629 41.2081 432.295 42.1555C429.961 43.103 427.249 43.5767 424.159 43.5767C420.287 43.5767 416.813 42.746 413.737 41.0845C410.675 39.423 408.252 36.9789 406.467 33.7521C404.695 30.5253 403.81 26.5776 403.81 21.9091C403.81 17.213 404.716 13.2585 406.529 10.0454C408.341 6.81863 410.785 4.38137 413.861 2.73364C416.937 1.07218 420.369 0.241455 424.159 0.241455C426.823 0.241455 429.274 0.605327 431.512 1.33307C433.75 2.06082 435.714 3.12498 437.403 4.52555C439.092 5.91238 440.451 7.6219 441.481 9.6541C442.511 11.6863 443.136 14.0137 443.355 16.6363Z" fill="#EC5AF7"/>
<path d="M489.414 21.9091C489.414 26.6051 488.501 30.5665 486.675 33.7933C484.849 37.0064 482.384 39.4436 479.281 41.1051C476.178 42.7528 472.717 43.5767 468.9 43.5767C465.056 43.5767 461.582 42.746 458.478 41.0845C455.389 39.4093 452.931 36.9652 451.105 33.7521C449.292 30.5253 448.386 26.5776 448.386 21.9091C448.386 17.213 449.292 13.2585 451.105 10.0454C452.931 6.81863 455.389 4.38137 458.478 2.73364C461.582 1.07218 465.056 0.241455 468.9 0.241455C472.717 0.241455 476.178 1.07218 479.281 2.73364C482.384 4.38137 484.849 6.81863 486.675 10.0454C488.501 13.2585 489.414 17.213 489.414 21.9091ZM477.633 21.9091C477.633 19.3826 477.297 17.2542 476.624 15.5241C475.965 13.7803 474.983 12.4621 473.679 11.5696C472.388 10.6633 470.795 10.2102 468.9 10.2102C467.005 10.2102 465.406 10.6633 464.101 11.5696C462.81 12.4621 461.829 13.7803 461.156 15.5241C460.497 17.2542 460.167 19.3826 460.167 21.9091C460.167 24.4356 460.497 26.5708 461.156 28.3146C461.829 30.0447 462.81 31.3629 464.101 32.2692C465.406 33.1617 467.005 33.6079 468.9 33.6079C470.795 33.6079 472.388 33.1617 473.679 32.2692C474.983 31.3629 475.965 30.0447 476.624 28.3146C477.297 26.5708 477.633 24.4356 477.633 21.9091Z" fill="#EC5AF7"/>
<path d="M494.713 43V0.818159H512.92C516.051 0.818159 518.79 1.388 521.138 2.52768C523.486 3.66735 525.313 5.30822 526.617 7.45026C527.921 9.59231 528.574 12.16 528.574 15.1534C528.574 18.1742 527.901 20.7213 526.555 22.7947C525.223 24.8681 523.349 26.4335 520.932 27.4907C518.529 28.548 515.721 29.0767 512.508 29.0767H501.633V20.179H510.202C511.547 20.179 512.694 20.0142 513.641 19.6846C514.602 19.3414 515.337 18.799 515.845 18.0575C516.367 17.316 516.628 16.348 516.628 15.1534C516.628 13.9451 516.367 12.9633 515.845 12.2081C515.337 11.4391 514.602 10.8762 513.641 10.5192C512.694 10.1484 511.547 9.96305 510.202 9.96305H506.165V43H494.713ZM519.429 23.6392L529.974 43H517.534L507.236 23.6392H519.429Z" fill="#EC5AF7"/>
<path d="M533.455 43V0.818159H563.856V10.0454H544.907V17.2954H562.29V26.5227H544.907V33.7727H563.773V43H533.455Z" fill="#EC5AF7"/>
<path d="M581.09 43V0.818159H592.542V33.7727H609.596V43H581.09Z" fill="#EC5AF7"/>
<path d="M614.225 43V0.818159H644.625V10.0454H625.676V17.2954H643.06V26.5227H625.676V33.7727H644.543V43H614.225Z" fill="#EC5AF7"/>
<path d="M661.262 43H648.904L662.827 0.818159H678.481L692.404 43H680.046L670.819 12.4346H670.489L661.262 43ZM658.955 26.3579H682.188V34.9261H658.955V26.3579Z" fill="#EC5AF7"/>
<path d="M696.467 43V0.818159H714.674C717.805 0.818159 720.544 1.388 722.892 2.52768C725.24 3.66735 727.066 5.30822 728.371 7.45026C729.675 9.59231 730.328 12.16 730.328 15.1534C730.328 18.1742 729.655 20.7213 728.309 22.7947C726.977 24.8681 725.103 26.4335 722.686 27.4907C720.283 28.548 717.475 29.0767 714.262 29.0767H703.387V20.179H711.955C713.301 20.179 714.448 20.0142 715.395 19.6846C716.356 19.3414 717.091 18.799 717.599 18.0575C718.121 17.316 718.382 16.348 718.382 15.1534C718.382 13.9451 718.121 12.9633 717.599 12.2081C717.091 11.4391 716.356 10.8762 715.395 10.5192C714.448 10.1484 713.301 9.96305 711.955 9.96305H707.919V43H696.467ZM721.183 23.6392L731.728 43H719.288L708.99 23.6392H721.183Z" fill="#EC5AF7"/>
<path d="M771.706 0.818159V43H762.149L746.908 20.838H746.661V43H735.209V0.818159H744.931L759.925 22.8977H760.254V0.818159H771.706Z" fill="#EC5AF7"/>
<path d="M788.575 0.818159V43H777.123V0.818159H788.575Z" fill="#EC5AF7"/>
<path d="M830.499 0.818159V43H820.942L805.701 20.838H805.454V43H794.002V0.818159H803.724L818.718 22.8977H819.047V0.818159H830.499Z" fill="#EC5AF7"/>
<path d="M863.31 14.7415C863.131 14.0137 862.849 13.3752 862.465 12.826C862.081 12.263 861.6 11.7893 861.023 11.4048C860.46 11.0066 859.801 10.7114 859.046 10.5192C858.304 10.3132 857.487 10.2102 856.595 10.2102C854.673 10.2102 853.032 10.6702 851.672 11.5902C850.327 12.5102 849.297 13.8352 848.583 15.5653C847.883 17.2954 847.532 19.3826 847.532 21.8267C847.532 24.2983 847.869 26.4129 848.542 28.1704C849.215 29.928 850.217 31.2737 851.549 32.2074C852.881 33.1411 854.535 33.6079 856.513 33.6079C858.256 33.6079 859.705 33.3539 860.858 32.8459C862.026 32.3378 862.898 31.6169 863.474 30.6832C864.051 29.7495 864.339 28.651 864.339 27.3878L866.317 27.5937H856.677V19.4375H875.379V25.2869C875.379 29.1316 874.562 32.4202 872.928 35.1527C871.308 37.8714 869.07 39.9585 866.214 41.414C863.371 42.8558 860.11 43.5767 856.43 43.5767C852.325 43.5767 848.72 42.7048 845.617 40.9609C842.514 39.2171 840.09 36.7318 838.346 33.505C836.616 30.2782 835.751 26.4403 835.751 21.9915C835.751 18.5038 836.28 15.4143 837.337 12.723C838.408 10.0317 839.891 7.75921 841.786 5.90552C843.681 4.03809 845.871 2.63066 848.356 1.68322C850.842 0.722042 853.506 0.241455 856.348 0.241455C858.847 0.241455 861.167 0.598463 863.31 1.31248C865.465 2.01276 867.367 3.01513 869.015 4.31958C870.676 5.6103 872.015 7.14131 873.031 8.91262C874.047 10.6839 874.665 12.6269 874.885 14.7415H863.31Z" fill="#EC5AF7"/>
<path d="M0.136719 113V62.8182H35.4208V73.7954H13.7603V82.4204H33.2646V93.3977H13.7603V113H0.136719Z" fill="#EC5AF7"/>
<path d="M40.4316 113V62.8182H62.0922C65.8166 62.8182 69.0755 63.4961 71.8688 64.8519C74.6621 66.2077 76.8347 68.1598 78.3865 70.7081C79.9384 73.2564 80.7143 76.3111 80.7143 79.8721C80.7143 83.4659 79.9139 86.4961 78.313 88.9627C76.7285 91.4293 74.4988 93.2915 71.6238 94.5493C68.7651 95.8072 65.4245 96.4361 61.6021 96.4361H48.6646V85.8508H58.8578C60.4586 85.8508 61.8226 85.6548 62.9498 85.2628C64.0932 84.8544 64.9672 84.2091 65.5716 83.327C66.1923 82.4449 66.5027 81.2933 66.5027 79.8721C66.5027 78.4346 66.1923 77.2667 65.5716 76.3682C64.9672 75.4535 64.0932 74.7837 62.9498 74.359C61.8226 73.9179 60.4586 73.6974 58.8578 73.6974H54.0552V113H40.4316ZM69.8351 89.9673L82.3805 113H67.5808L55.3294 89.9673H69.8351Z" fill="#EC5AF7"/>
<path d="M135.135 87.9091C135.135 93.4957 134.049 98.2084 131.876 102.047C129.704 105.87 126.771 108.769 123.08 110.746C119.388 112.706 115.271 113.686 110.73 113.686C106.156 113.686 102.024 112.698 98.3319 110.721C94.6564 108.728 91.7324 105.821 89.5598 101.998C87.4036 98.1594 86.3255 93.463 86.3255 87.9091C86.3255 82.3224 87.4036 77.6179 89.5598 73.7954C91.7324 69.9567 94.6564 67.0572 98.3319 65.0969C102.024 63.1204 106.156 62.1321 110.73 62.1321C115.271 62.1321 119.388 63.1204 123.08 65.0969C126.771 67.0572 129.704 69.9567 131.876 73.7954C134.049 77.6179 135.135 82.3224 135.135 87.9091ZM121.119 87.9091C121.119 84.9034 120.719 82.3714 119.919 80.3132C119.135 78.2386 117.967 76.6704 116.415 75.6086C114.879 74.5305 112.985 73.9915 110.73 73.9915C108.476 73.9915 106.573 74.5305 105.021 75.6086C103.486 76.6704 102.318 78.2386 101.517 80.3132C100.733 82.3714 100.341 84.9034 100.341 87.9091C100.341 90.9147 100.733 93.4549 101.517 95.5294C102.318 97.5877 103.486 99.1559 105.021 100.234C106.573 101.296 108.476 101.827 110.73 101.827C112.985 101.827 114.879 101.296 116.415 100.234C117.967 99.1559 119.135 97.5877 119.919 95.5294C120.719 93.4549 121.119 90.9147 121.119 87.9091Z" fill="#EC5AF7"/>
<path d="M184.858 62.8182V113H173.488L155.356 86.6349H155.062V113H141.438V62.8182H153.004L170.842 89.0852H171.234V62.8182H184.858Z" fill="#EC5AF7"/>
<path d="M189.93 73.7954V62.8182H233.545V73.7954H218.451V113H205.023V73.7954H189.93Z" fill="#EC5AF7"/>
<path d="M238.672 113V62.8182H274.838V73.7954H252.295V82.4204H272.976V93.3977H252.295V102.023H274.74V113H238.672Z" fill="#EC5AF7"/>
<path d="M325.014 62.8182V113H313.644L295.512 86.6349H295.218V113H281.595V62.8182H293.16L310.998 89.0852H311.39V62.8182H325.014Z" fill="#EC5AF7"/>
<path d="M350.766 113H331.458V62.8182H350.57C355.732 62.8182 360.192 63.8228 363.949 65.832C367.722 67.8249 370.63 70.6999 372.672 74.457C374.73 78.1978 375.759 82.6818 375.759 87.9091C375.759 93.1363 374.738 97.6285 372.696 101.386C370.654 105.126 367.763 108.001 364.022 110.011C360.282 112.004 355.863 113 350.766 113ZM345.082 101.435H350.276C352.759 101.435 354.875 101.034 356.622 100.234C358.387 99.4336 359.726 98.0532 360.641 96.093C361.572 94.1328 362.038 91.4048 362.038 87.9091C362.038 84.4133 361.564 81.6853 360.616 79.7251C359.685 77.7649 358.313 76.3846 356.5 75.5841C354.703 74.7837 352.498 74.3835 349.884 74.3835H345.082V101.435Z" fill="#EC5AF7"/>
<path d="M396 113V62.8182H431.284V73.7954H409.624V82.4204H429.128V93.3977H409.624V113H396Z" fill="white"/>
<path d="M484.909 87.9091C484.909 93.4957 483.822 98.2084 481.65 102.047C479.477 105.87 476.545 108.769 472.853 110.746C469.161 112.706 465.045 113.686 460.504 113.686C455.93 113.686 451.797 112.698 448.105 110.721C444.43 108.728 441.506 105.821 439.333 101.998C437.177 98.1594 436.099 93.463 436.099 87.9091C436.099 82.3224 437.177 77.6179 439.333 73.7954C441.506 69.9567 444.43 67.0572 448.105 65.0969C451.797 63.1204 455.93 62.1321 460.504 62.1321C465.045 62.1321 469.161 63.1204 472.853 65.0969C476.545 67.0572 479.477 69.9567 481.65 73.7954C483.822 77.6179 484.909 82.3224 484.909 87.9091ZM470.893 87.9091C470.893 84.9034 470.493 82.3714 469.692 80.3132C468.908 78.2386 467.74 76.6704 466.188 75.6086C464.653 74.5305 462.758 73.9915 460.504 73.9915C458.249 73.9915 456.346 74.5305 454.795 75.6086C453.259 76.6704 452.091 78.2386 451.291 80.3132C450.507 82.3714 450.115 84.9034 450.115 87.9091C450.115 90.9147 450.507 93.4549 451.291 95.5294C452.091 97.5877 453.259 99.1559 454.795 100.234C456.346 101.296 458.249 101.827 460.504 101.827C462.758 101.827 464.653 101.296 466.188 100.234C467.74 99.1559 468.908 97.5877 469.692 95.5294C470.493 93.4549 470.893 90.9147 470.893 87.9091Z" fill="white"/>
<path d="M491.212 113V62.8182H512.872C516.597 62.8182 519.856 63.4961 522.649 64.8519C525.442 66.2077 527.615 68.1598 529.167 70.7081C530.719 73.2564 531.495 76.3111 531.495 79.8721C531.495 83.4659 530.694 86.4961 529.093 88.9627C527.509 91.4293 525.279 93.2915 522.404 94.5493C519.545 95.8072 516.205 96.4361 512.382 96.4361H499.445V85.8508H509.638C511.239 85.8508 512.603 85.6548 513.73 85.2628C514.874 84.8544 515.747 84.2091 516.352 83.327C516.973 82.4449 517.283 81.2933 517.283 79.8721C517.283 78.4346 516.973 77.2667 516.352 76.3682C515.747 75.4535 514.874 74.7837 513.73 74.359C512.603 73.9179 511.239 73.6974 509.638 73.6974H504.835V113H491.212ZM520.615 89.9673L533.161 113H518.361L506.11 89.9673H520.615Z" fill="white"/>
<path d="M550.656 105.159V94.5738L570.846 62.8182H580.451V76.9318H574.963L564.083 94.1818V94.5738H593.879V105.159H550.656ZM575.061 113V101.925L575.355 97.3182V62.8182H588.096V113H575.061Z" fill="white"/>
<path d="M613.242 62.8182H630.198L641.862 91.2415H642.45L654.113 62.8182H671.069V113H657.739V83.9886H657.347L646.174 112.608H638.137L626.964 83.7926H626.572V113H613.242V62.8182Z" fill="white"/>
<path d="M726.139 87.9091C726.139 93.4957 725.053 98.2084 722.88 102.047C720.708 105.87 717.775 108.769 714.084 110.746C710.392 112.706 706.275 113.686 701.734 113.686C697.16 113.686 693.028 112.698 689.336 110.721C685.66 108.728 682.736 105.821 680.564 101.998C678.407 98.1594 677.329 93.463 677.329 87.9091C677.329 82.3224 678.407 77.6179 680.564 73.7954C682.736 69.9567 685.66 67.0572 689.336 65.0969C693.028 63.1204 697.16 62.1321 701.734 62.1321C706.275 62.1321 710.392 63.1204 714.084 65.0969C717.775 67.0572 720.708 69.9567 722.88 73.7954C725.053 77.6179 726.139 82.3224 726.139 87.9091ZM712.123 87.9091C712.123 84.9034 711.723 82.3714 710.923 80.3132C710.139 78.2386 708.971 76.6704 707.419 75.6086C705.883 74.5305 703.988 73.9915 701.734 73.9915C699.48 73.9915 697.577 74.5305 696.025 75.6086C694.49 76.6704 693.322 78.2386 692.521 80.3132C691.737 82.3714 691.345 84.9034 691.345 87.9091C691.345 90.9147 691.737 93.4549 692.521 95.5294C693.322 97.5877 694.49 99.1559 696.025 100.234C697.577 101.296 699.48 101.827 701.734 101.827C703.988 101.827 705.883 101.296 707.419 100.234C708.971 99.1559 710.139 97.5877 710.923 95.5294C711.723 93.4549 712.123 90.9147 712.123 87.9091Z" fill="white"/>
<path d="M775.861 62.8182V113H764.492L746.36 86.6349H746.066V113H732.442V62.8182H744.008L761.846 89.0852H762.238V62.8182H775.861Z" fill="white"/>
<path d="M780.934 73.7954V62.8182H824.549V73.7954H809.455V113H796.027V73.7954H780.934Z" fill="white"/>
<path d="M829.676 113V62.8182H843.299V82.4204H861.333V62.8182H874.957V113H861.333V93.3977H843.299V113H829.676Z" fill="white"/>
</svg>
