<svg width="282" height="193" viewBox="0 0 282 193" fill="none" xmlns="http://www.w3.org/2000/svg">
<g opacity="0.5" clip-path="url(#clip0_553_32)">
<path d="M168.6 123.9C168.6 123.9 180 133.4 189.5 123.9L195.5 117.9" stroke="#00C2FF" stroke-width="3" stroke-miterlimit="10"/>
<path d="M188.3 124.4C188.3 124.4 199.7 133.9 209.2 124.4" stroke="#00C2FF" stroke-width="3" stroke-miterlimit="10"/>
<path d="M119.9 0.600098V17.5001C119.9 17.5001 118.9 25.1001 124.4 35.1001C129.9 45.2001 134.5 52.5001 134.5 52.5001" stroke="#00C2FF" stroke-width="3" stroke-miterlimit="10"/>
<path d="M188.9 27.8002C208.3 29.1002 220.4 51.5002 220.4 56.4002C220.4 56.4002 220.9 62.1002 226.1 62.1002C231.3 62.1002 233.3 60.6002 233.3 60.6002V53.2002C233.3 53.2002 232.8 48.8002 238.6 45.8002C243.3 43.3002 260.9 25.0002 267.1 0.700195" stroke="#00C2FF" stroke-width="3" stroke-miterlimit="10"/>
<path d="M150.3 28.7002C145.7 30.4002 139.8 34.5002 136.5 44.4002C135.4 47.6002 134.7 50.2002 134.3 52.4002" stroke="#00C2FF" stroke-width="3" stroke-miterlimit="10"/>
<path d="M207.4 72.4L204.3 65.2C173.8 45.6 144.8 60.6 144.8 60.6C144.8 60.6 142 72.2 157.1 72.2C172.2 72.2 207.4 72.4 207.4 72.4Z" stroke="#00C2FF" stroke-width="3" stroke-miterlimit="10"/>
<path d="M42.7998 179.9C45.1998 182.3 46.6998 183.8 46.6998 183.8C46.6998 183.8 63.3998 199.5 84.9998 185.8" stroke="#00C2FF" stroke-width="3" stroke-miterlimit="10"/>
<path d="M27.4001 138L19.7001 145.7C19.7001 145.7 16.1001 153.2 21.3001 158.3C23.1001 160.1 26.7001 163.7 30.6001 167.6" stroke="#00C2FF" stroke-width="3" stroke-miterlimit="10"/>
<path d="M175 23.7C175 23.7 179.1 22.4 182.6 24.4" stroke="#00C2FF" stroke-width="3" stroke-miterlimit="10"/>
<path d="M43.7002 90.5C57.4002 76.8 74.9002 59.3 74.9002 59.3" stroke="#00C2FF" stroke-width="3" stroke-miterlimit="10"/>
<path d="M45.4997 104.6C45.4997 104.6 41.4997 96.9 44.1997 90.3" stroke="#00C2FF" stroke-width="3" stroke-miterlimit="10"/>
<path d="M23.3001 142.4C23.3001 142.4 17.4001 131.2 24.6001 124.1C31.8001 117 51.8001 96.9001 51.8001 96.9001" stroke="#00C2FF" stroke-width="3" stroke-miterlimit="10"/>
<path d="M74.8996 59.3001C74.8996 59.3001 71.4996 50.6001 78.5996 43.4001C85.6996 36.2001 120.4 1.6001 120.4 1.6001" stroke="#00C2FF" stroke-width="3" stroke-miterlimit="10"/>
<path d="M201.9 156.9C214.3 147.7 230.2 136 230.2 136" stroke="#00C2FF" stroke-width="3" stroke-miterlimit="10"/>
<path d="M191 153.8C191 153.8 196.6 157.9 202.2 156.6" stroke="#00C2FF" stroke-width="3" stroke-miterlimit="10"/>
<path d="M230.2 135.9C230.2 135.9 236.7 139.6 243.2 134.9C249.7 130.2 281.1 105.9 281.1 105.9" stroke="#00C2FF" stroke-width="3" stroke-miterlimit="10"/>
<path d="M82.2002 185.5C82.2002 185.5 92.7002 194.2 101.4 185.5L107 179.9" stroke="#00C2FF" stroke-width="3" stroke-miterlimit="10"/>
<path d="M180 11.7001C185.9 11.7001 190.7 16.5001 190.7 22.4001C190.7 28.3001 185.9 33.1001 180 33.1001H160.2C160.2 33.1001 147.6 33.0001 147.6 20.5001C147.6 17.7001 147.6 16.6001 154.4 11.8001C161 7.2001 163.7 0.600098 163.7 0.600098" stroke="#00C2FF" stroke-width="3" stroke-miterlimit="10"/>
<path d="M104.2 182.1C110.6 187.1 121.8 192.8 135.8 182.5L144.5 176.1C144.5 176.1 152.5 183.1 172.3 168.4C173.2 167.7 190.2 155.1 191.9 153.9" stroke="#00C2FF" stroke-width="3" stroke-miterlimit="10"/>
<path d="M234.5 22.0001C234.5 22.0001 251.2 20.7001 251.2 8.4001V0.600098" stroke="#00C2FF" stroke-width="3" stroke-miterlimit="10"/>
<path d="M234.5 21V31.3" stroke="#00C2FF" stroke-width="3" stroke-miterlimit="10"/>
<path d="M62.8996 136.6L33.0996 162.1L40.1996 164L39.9996 170.6L46.4996 171.4L47.2996 178.7L78.7996 151.8" stroke="#00C2FF" stroke-width="3" stroke-miterlimit="10" stroke-linecap="round" stroke-linejoin="round"/>
<path d="M46.5 171.4L74.9 147.1" stroke="#00C2FF" stroke-width="3" stroke-miterlimit="10" stroke-linecap="round" stroke-linejoin="round"/>
<path d="M40.2002 164L68.5002 139.8" stroke="#00C2FF" stroke-width="3" stroke-miterlimit="10" stroke-linecap="round" stroke-linejoin="round"/>
<path d="M33.1 162.1L23 185.1L47.3 178.7" stroke="#00C2FF" stroke-width="3" stroke-miterlimit="10" stroke-linecap="round" stroke-linejoin="round"/>
<path d="M27 176C28.4 176.4 29.8 177.2 30.8 178.4C31.8 179.6 32.4 181 32.6 182.5" stroke="#00C2FF" stroke-width="3" stroke-miterlimit="10" stroke-linecap="round" stroke-linejoin="round"/>
<path d="M87.8996 154.8C87.8996 154.8 73.0996 153.4 73.0996 140V131.5" stroke="#00C2FF" stroke-width="3" stroke-miterlimit="10"/>
<path d="M73.7004 141.2C73.7004 141.2 58.9004 139.8 58.9004 126.4" stroke="#00C2FF" stroke-width="3" stroke-miterlimit="10"/>
</g>
<g opacity="0.2">
<path d="M240.8 167.8C240.8 162.5 236.5 158.1 231.1 158.1C225.7 158.1 221.4 162.4 221.4 167.8C221.4 173.2 225.7 177.5 231.1 177.5H282" stroke="#00C2FF" stroke-width="3" stroke-miterlimit="10"/>
<path d="M270.4 158.2C270.4 152.9 266.1 148.5 260.7 148.5C255.3 148.5 251 152.8 251 158.2C251 163.6 255.3 167.9 260.7 167.9H282" stroke="#00C2FF" stroke-width="3" stroke-miterlimit="10"/>
</g>
<g opacity="0.2" clip-path="url(#clip1_553_32)">
<path d="M20.8004 37.8001C20.8004 32.5001 16.5004 28.1001 11.1004 28.1001C5.70039 28.1001 1.40039 32.4001 1.40039 37.8001C1.40039 43.2001 5.70039 47.5001 11.1004 47.5001H50.3004" stroke="#00C2FF" stroke-width="3" stroke-miterlimit="10"/>
<path d="M30.8004 67.3001C30.8004 72.6001 26.5004 77.0001 21.1004 77.0001C15.7004 77.0001 11.4004 72.7001 11.4004 67.3001C11.4004 61.9001 15.7004 57.6001 21.1004 57.6001H60.3004" stroke="#00C2FF" stroke-width="3" stroke-miterlimit="10"/>
<path d="M49.4 28.2C49.4 22.9 45.1 18.5 39.7 18.5C34.3 18.5 30 22.8 30 28.2C30 33.6 34.3 37.9 39.7 37.9H61" stroke="#00C2FF" stroke-width="3" stroke-miterlimit="10"/>
</g>
<defs>
<clipPath id="clip0_553_32">
<rect width="265" height="192.9" fill="white" transform="translate(17)"/>
</clipPath>
<clipPath id="clip1_553_32">
<rect width="61" height="61.4" fill="white" transform="translate(0 17)"/>
</clipPath>
</defs>
</svg>
